<?xml version="1.0" encoding="UTF-8"?>
<svg width="151px" height="153px" viewBox="0 0 151 153" version="1.1" xmlns="http://www.w3.org/2000/svg" xmlns:xlink="http://www.w3.org/1999/xlink">
    <title>dgs</title>
    <g id="Page-1" stroke="none" stroke-width="1" fill="none" fill-rule="evenodd">
        <g id="dgs" transform="translate(1.000000, 0.000000)">
            <path d="M70.7991,78.7164 C71.4189,85.5789 74.3049,92.0295 78.9909,97.0266 C81.6411,99.759 84.8376,101.886 88.3662,103.2648 C91.8945,104.6436 95.6736,105.2427 99.4494,105.0213 C105.7806,105.423 112.0362,103.4493 117.0213,99.4767 C120.5703,96.2688 123.0966,92.0646 124.2795,87.3987 L99.8736,87.3987 L99.8736,68.3577 L150.0012,68.3577 L150.0012,69.432 C150.0012,81.8541 145.7565,100.7232 134.4237,112.4142 C129.7536,117.2148 124.1187,120.9429 117.9015,123.3456 C111.684,125.7483 105.0294,126.7695 98.388,126.3405 C91.5816,126.792 84.759,125.7507 78.3861,123.288 C72.0132,120.8253 66.2403,116.9991 61.461,112.0704 C57.4866,107.9556 54.2289,103.1889 51.8262,97.9722 L70.7991,78.7164 Z M124.3218,24.55884 C125.9871,25.35132 127.5906,26.27094 129.1182,27.30969 C135.8157,32.1012 141.3939,38.3223 145.4595,45.534 L124.2369,57.0534 C122.1654,52.7124 119.1114,48.9279 115.3236,46.0068 C112.7685,44.1243 109.89,42.7395 106.8348,41.9235 L124.3218,24.55884 Z" id="Shape" fill="#FFFFFF" fill-rule="nonzero"></path>
            <path d="M80.262,69.1314 C80.2833,68.7162 80.2833,68.3001 80.262,67.8849 C80.3787,63.8145 79.6875,59.7618 78.2295,55.9668 C76.7712,52.1721 74.5758,48.7122 71.7732,45.792 C68.4573,42.7737 64.5783,40.458 60.3651,38.9817 C56.1516,37.5054 51.6888,36.8979 47.2401,37.1955 L41.2977,37.1955 L41.2977,99.4338 L50.5509,99.4338 L30.6867,119.3775 L17.95314,119.3775 L17.95314,17.3379 L49.8717,17.3379 C63.1992,17.3379 77.2485,19.35804 89.685,31.479 C94.6359,36.2865 98.4516,42.1635 100.848,48.6717 L80.262,69.1314 Z" id="Path" fill="#FFFFFF" fill-rule="nonzero"></path>
            <line x1="0" y1="150.4962" x2="148.0899" y2="0.531738" id="Path" stroke="#FFFFFF" stroke-width="0.25"></line>
        </g>
    </g>
</svg>