<?xml version="1.0" encoding="UTF-8"?>
<svg width="172px" height="74px" viewBox="0 0 172 74" version="1.1" xmlns="http://www.w3.org/2000/svg" xmlns:xlink="http://www.w3.org/1999/xlink">
    <title>bfi</title>
    <g id="Page-1" stroke="none" stroke-width="1" fill="none" fill-rule="evenodd">
        <g id="bfi" fill="#FFFFFF" fill-rule="nonzero">
            <path d="M57.35,53.08 C57.35,65.08 49.65,73.9 33.93,73.9 L0,73.9 L0,0 L29,0 C46,0 53.46,7 53.46,18 C53.46,24 51.17,30.7 42.12,34.13 L42.12,34.32 C53.67,37.32 57.32,44.41 57.32,53.05" id="Path"></path>
            <path d="M72.53,15.2 C72.53,14.5 72.03,13.98 70.85,13.98 L69.25,13.98 L69.25,16.46 L70.87,16.46 C71.87,16.46 72.53,16.03 72.53,15.2 M69.25,11.32 L70.45,11.32 C70.7962179,11.392813 71.1570513,11.3142704 71.4416813,11.104141 C71.7263112,10.8940115 71.9076296,10.5723077 71.94,10.22 C71.94,9.58 71.46,9.1 70.41,9.1 L69.25,9.1 L69.25,11.32 Z M76.35,15.77 C76.35,17.99 74.92,19.64 72,19.64 L65.7,19.64 L65.7,5.88 L71.1,5.88 C74.25,5.88 75.64,7.17 75.64,9.22 C75.7010242,10.5835598 74.8339004,11.8164372 73.53,12.22 L73.53,12.22 C75.2338579,12.4667935 76.461688,13.9819882 76.35,15.7" id="Shape"></path>
            <polygon id="Path" points="79.67 5.88 88.79 5.88 88.79 9.14 83.22 9.14 83.22 11.21 87.58 11.21 87.58 14.4 83.22 14.4 83.22 16.34 89.2 16.34 89.2 19.61 79.67 19.61"></polygon>
            <path d="M96.24,12.24 L97.36,12.24 C98.52,12.24 99.36,11.7 99.36,10.67 C99.36,9.82 98.68,9.1 97.36,9.1 L96.24,9.1 L96.24,12.23 L96.24,12.24 Z M99.68,19.61 L97.09,15.41 L96.24,15.41 L96.24,19.61 L92.68,19.61 L92.68,5.88 L98.17,5.88 C101.63,5.88 103.17,7.88 103.17,10.75 C103.304576,12.4621006 102.37574,14.0816099 100.83,14.83 L100.83,14.83 L104,19.61 L99.73,19.61 L99.68,19.61 Z" id="Shape"></path>
            <polygon id="Path" points="111.39 14.66 110.62 15.6 110.62 19.61 106.97 19.61 106.97 5.88 110.62 5.88 110.62 10.5 110.66 10.5 114 5.88 118.65 5.88 113.81 11.74 118.84 19.61 114.33 19.61"></polygon>
            <polygon id="Path" points="121.62 5.88 130.75 5.88 130.75 9.14 125.18 9.14 125.18 11.21 129.53 11.21 129.53 14.4 125.18 14.4 125.18 16.34 131.15 16.34 131.15 19.61 121.62 19.61"></polygon>
            <polygon id="Path" points="134.63 5.88 138.33 5.88 138.33 16.34 143.78 16.34 143.78 19.61 134.63 19.61"></polygon>
            <polygon id="Path" points="147.01 5.88 156.13 5.88 156.13 9.14 150.57 9.14 150.57 11.21 154.92 11.21 154.92 14.4 150.57 14.4 150.57 16.34 156.54 16.34 156.54 19.61 147.01 19.61"></polygon>
            <polygon id="Path" points="167.25 5.88 165.2 10.07 163.09 5.88 158.88 5.88 163.31 13.67 163.31 19.61 167.06 19.61 167.06 13.67 171.5 5.88 171.5 5.88"></polygon>
            <polygon id="Path" points="65.91 25.38 83.52 25.38 83.52 31.48 72.55 31.48 72.55 36.32 81.54 36.32 81.54 42.38 72.55 42.38 72.55 51.01 65.91 51.01"></polygon>
            <path d="M105.94,38.19 C105.94,34.44 103.45,31.4 99.8,31.4 C96.15,31.4 93.63,34.4 93.63,38.19 C93.63,41.98 96.19,44.98 99.8,44.98 C103.41,44.98 105.94,41.98 105.94,38.19 M86.48,38.19 C86.48,30.39 91.93,24.98 99.8,24.98 C107.67,24.98 113.12,30.32 113.12,38.19 C113.12,46.06 107.6,51.32 99.8,51.32 C92,51.32 86.48,45.99 86.48,38.19" id="Shape"></path>
            <path d="M136.33,38.19 C136.33,34.44 133.84,31.4 130.19,31.4 C126.54,31.4 124.02,34.4 124.02,38.19 C124.02,41.98 126.58,44.98 130.19,44.98 C133.8,44.98 136.33,41.98 136.33,38.19 M116.87,38.19 C116.87,30.39 122.32,24.98 130.19,24.98 C138.06,24.98 143.51,30.32 143.51,38.19 C143.51,46.06 138,51.32 130.19,51.32 C122.38,51.32 116.87,45.94 116.87,38.14" id="Shape"></path>
            <path d="M157,44.91 C158.760107,44.9369668 160.452909,44.2343757 161.676627,42.9689831 C162.900344,41.7035906 163.545873,39.9882177 163.46,38.23 C163.46,34.4 160.86,31.48 157.46,31.48 L154.72,31.48 L154.72,44.91 L157,44.91 Z M148.12,25.38 L157.36,25.38 C165.45,25.38 170.64,30.65 170.64,38.23 C170.64,45.81 165.77,51.01 157.46,51.01 L148.11,51.01 L148.11,25.38 L148.12,25.38 Z" id="Shape"></path>
            <rect id="Rectangle" x="65.62" y="56.77" width="3.48" height="12.81"></rect>
            <polygon id="Path" points="84.37 56.77 84.37 69.58 80.81 69.58 76.61 62.56 76.57 62.56 76.57 69.58 73.16 69.58 73.16 56.77 76.61 56.77 80.89 63.99 80.94 63.99 80.94 56.77"></polygon>
            <path d="M87.54,67.71 L89.54,65.33 C90.2899738,66.1687337 91.3375848,66.6817761 92.46,66.76 C92.7182614,66.8123579 92.9865766,66.7514577 93.196929,66.5927372 C93.4072814,66.4340168 93.5394752,66.1927148 93.56,65.93 C93.56,65.43 93.31,65.15 91.94,64.7 C89.99,64.03 88.04,63.09 88.04,60.48 C88.04,58.3 89.86,56.65 92.32,56.6 C93.9769693,56.5869446 95.5774934,57.2014315 96.8,58.32 L94.91,60.76 C94.2487506,60.113733 93.3893335,59.7086798 92.47,59.61 C92.2455365,59.5678968 92.0140386,59.6289652 91.8395509,59.7763103 C91.6650633,59.9236554 91.5660854,60.1416555 91.57,60.37 C91.57,60.8 91.84,61.15 93.14,61.65 C95.41,62.52 97.14,63.08 97.14,65.55 C97.14,68.76 94.45,69.79 92.3,69.79 C90.5021794,69.7789495 88.786672,69.034961 87.55,67.73" id="Path"></path>
            <polygon id="Path" points="103.13 59.82 99.89 59.82 99.89 56.77 109.8 56.77 109.8 59.82 106.55 59.82 106.55 69.58 103.13 69.58"></polygon>
            <rect id="Rectangle" x="113.2" y="56.77" width="3.48" height="12.81"></rect>
            <polygon id="Path" points="123.36 59.82 120.11 59.82 120.11 56.77 130.02 56.77 130.02 59.82 126.77 59.82 126.77 69.58 123.36 69.58"></polygon>
            <path d="M133.24,64.21 L133.24,56.77 L136.71,56.77 L136.71,64.01 C136.71,65.36 137.31,66.57 138.62,66.57 C139.76,66.57 140.62,65.65 140.62,64.01 L140.62,56.77 L144,56.77 L144,64.21 C144,67.57 142.09,69.77 138.57,69.77 C135.36,69.77 133.19,67.82 133.19,64.21" id="Path"></path>
            <polygon id="Path" points="150.52 59.82 147.27 59.82 147.27 56.77 157.18 56.77 157.18 59.82 153.93 59.82 153.93 69.58 150.52 69.58"></polygon>
            <polygon id="Path" points="160.5 56.77 169.02 56.77 169.02 59.82 163.82 59.82 163.82 61.75 167.88 61.75 167.88 64.73 163.82 64.73 163.82 66.53 169.4 66.53 169.4 69.58 160.5 69.58"></polygon>
        </g>
    </g>
</svg>