<?xml version="1.0" encoding="UTF-8"?>
<svg width="309px" height="190px" viewBox="0 0 309 190" version="1.1" xmlns="http://www.w3.org/2000/svg" xmlns:xlink="http://www.w3.org/1999/xlink">
    <title>biochain-white</title>
    <g id="Page-1" stroke="none" stroke-width="1" fill="none" fill-rule="evenodd">
        <g id="Combined-Shape" transform="translate(0.500000, -0.001890)" fill="#FFFFFF">
            <path d="M94.5,0.501889527 C146.690909,0.501889527 189,42.8109807 189,95.0018895 C189,147.192798 146.690909,189.50189 94.5,189.50189 C42.3090911,189.50189 0,147.192798 0,95.0018895 C0,42.8109807 42.3090911,0.501889527 94.5,0.501889527 L94.5,0.501889527 L94.3204035,0.514549827 C87.91545,1.34905953 34.5,43.3328898 34.5,95.0018895 C34.5,129.795829 52.21875,161.295829 94.5,189.50189 L94.5,189.50189 L95.7620953,188.65472 C137.201948,160.665499 157.921875,129.447889 157.921875,95.0018895 C157.921875,43.3328898 101.152645,1.34905953 94.6806162,0.514549827 L94.6806162,0.514549827 Z"></path>
            <path d="M119.5,95.0018895 C119.5,96.800901 127.064713,96.6730392 136.175399,98.4544388 C144.769471,100.134826 154.933089,103.725444 155.140291,105.39016 C158.923534,135.785638 179.47211,163.568895 216.786019,188.73993 L217.71,189.359 L217.71,189.36089 C253.374803,154.925983 273.136247,127.472949 276.994332,107.001785 L307.85336,107.002605 C303.188858,150.079724 273.28902,189.81158 218.153846,190.00189 C164.209101,190.18809 120.384317,148.31907 119.513215,96.5729441 L119.5,95.0018895 L119.5,95.0018895 Z M217.486,0.004 L217.502368,1.42108547e-14 C210.51663,1.62200971 162.023111,38.2945016 155.27802,84.4389345 C155.035361,86.0990092 144.668356,89.4497183 136.175399,91.134613 C126.927023,92.9693734 119.5,93.1405194 119.5,95.0018895 C119.5,43.0595088 162.762995,0.669126071 216.521618,0.00908433601 L217.486,0.004 Z M218.153846,0.00188952542 C273.71556,0.193671535 303.649974,40.5411745 307.957086,84.0015262 L277.102693,84.0016506 C270.245456,38.4501618 218.504197,0.761137643 217.516357,0.0121937979 L217.507,0.004 L218.153846,0.00188952542 L218.153846,0.00188952542 Z"></path>
        </g>
    </g>
</svg>