<?xml version="1.0" encoding="UTF-8"?>
<svg width="189px" height="28px" viewBox="0 0 189 28" version="1.1" xmlns="http://www.w3.org/2000/svg" xmlns:xlink="http://www.w3.org/1999/xlink">
    <title>crunchbase_logo</title>
    <g id="Page-1" stroke="none" stroke-width="1" fill="none" fill-rule="evenodd">
        <g id="crunchbase_logo" fill="#FFFFFF" fill-rule="nonzero">
            <path d="M188.3,18 C188.3,12.6 184.6,9.4 179.7,9.4 C175,9.2 171,12.9 170.9,17.6 C170.9,17.8 170.9,18 170.9,18.3 C170.7,23.1 174.4,27.1 179.1,27.3 C179.3,27.3 179.5,27.3 179.7,27.3 C181.5,27.3 183.3,26.9 184.8,26 C186.4,25.1 187.6,23.5 188.1,21.6 L184.5,21.6 C183.6,23.2 182.1,24 179.8,24 C176.8,24 174.6,21.6 174.6,19.4 L188.2,19.4 C188.3,18.8 188.3,18.4 188.3,18 Z M174.6,16.3 C175.1,14 177.2,12.4 179.5,12.6 C182.1,12.6 184.2,14.1 184.4,16.3 L174.6,16.3 Z" id="Shape"></path>
            <path d="M14.1,20.5 C12.9,23.1 9.8,24.2 7.2,23 C4.6,21.8 3.5,18.7 4.7,16.1 C5.9,13.5 9,12.4 11.6,13.6 C12.7,14.1 13.6,15.1 14.1,16.2 L18.1,16.2 C16.9,11.4 12.1,8.4 7.2,9.6 C2.3,10.8 -0.6,15.6 0.6,20.5 C1.8,25.4 6.6,28.3 11.5,27.1 C14.8,26.3 17.3,23.8 18.1,20.5 L14.1,20.5 Z" id="Path"></path>
            <path d="M32.4,10.1 C31.3,9.6 30,9.3 28.8,9.3 C27.5,9.3 26.3,9.7 25.2,10.4 L25.2,10 L21.6,10 L21.6,26.7 L25.3,26.7 L25.3,18.7 C25.2,17.6 25.3,16.5 25.5,15.5 C25.5,15.5 25.5,15.4 25.5,15.4 C25.7,14.7 26.2,14.1 26.9,13.7 C28.1,12.9 29.7,12.9 30.9,13.7 L32.4,10.1 Z" id="Path"></path>
            <path d="M46.4,10 L46.4,18 C46.5,19.1 46.4,20.2 46.2,21.2 L46.2,21.3 C46,22 45.5,22.6 44.8,23 C43.6,23.8 42,23.8 40.8,23 C40.1,22.6 39.7,22 39.4,21.3 C39.4,21.3 39.4,21.2 39.4,21.2 C39.2,20.1 39.1,19 39.2,18 L39.2,10 L35.5,10 L35.5,19.1 C35.4,20.6 35.6,22.1 36.1,23.5 C36.7,24.9 37.7,25.9 39.1,26.5 C40.2,27 41.5,27.3 42.7,27.3 C44,27.3 45.2,26.9 46.3,26.2 L46.3,26.7 L50,26.7 L50,10 L46.4,10 Z" id="Path"></path>
            <path d="M58.3,26.7 L58.3,18.7 C58.2,17.6 58.3,16.5 58.5,15.5 L58.5,15.4 C58.7,14.7 59.2,14.1 59.9,13.7 C61.1,12.9 62.7,12.9 63.9,13.7 C64.6,14.1 65,14.7 65.3,15.4 L65.3,15.5 C65.5,16.6 65.6,17.7 65.5,18.7 L65.5,26.7 L69.2,26.7 L69.2,17.6 C69.3,16.1 69.1,14.6 68.6,13.2 C68,11.8 67,10.8 65.6,10.2 C64.5,9.7 63.2,9.4 62,9.4 C60.7,9.4 59.5,9.8 58.4,10.5 L58.4,10 L54.7,10 L54.7,26.7 L58.3,26.7 Z" id="Path"></path>
            <path d="M86.2,20.5 C85,23.1 81.9,24.2 79.3,23 C76.7,21.8 75.6,18.7 76.8,16.1 C78,13.5 81.1,12.4 83.7,13.6 C84.8,14.1 85.7,15.1 86.2,16.2 L90.2,16.2 C89,11.4 84.2,8.4 79.3,9.6 C74.4,10.8 71.5,15.6 72.7,20.5 C73.9,25.3 78.7,28.3 83.6,27.1 C86.9,26.3 89.4,23.8 90.2,20.5 L86.2,20.5 Z" id="Path"></path>
            <path d="M97.3,26.7 L97.3,18.7 C97.2,17.6 97.3,16.5 97.5,15.5 L97.5,15.4 C97.7,14.7 98.2,14.1 98.9,13.7 C100.1,12.9 101.7,12.9 102.9,13.7 C103.6,14 104,14.6 104.3,15.4 L104.3,15.5 C104.5,16.6 104.6,17.7 104.5,18.7 L104.5,26.7 L108.2,26.7 L108.2,17.6 C108.3,16.1 108.1,14.6 107.6,13.2 C107,11.9 105.9,10.8 104.6,10.2 C103.5,9.7 102.2,9.4 101,9.4 C99.7,9.4 98.5,9.8 97.4,10.5 L97.4,0.9 L93.7,0.9 L93.7,26.7 L97.3,26.7 Z" id="Path"></path>
            <path d="M121.4,9.4 L120.7,9.4 C119.1,9.5 117.6,10.1 116.3,11 L116.3,1 L112.6,1 L112.6,26.7 L116.3,26.7 L116.3,25.8 C118.7,27.5 121.8,27.8 124.6,26.7 C129.2,24.9 131.5,19.7 129.7,15.1 C128.4,11.6 125.1,9.4 121.4,9.4 L121.4,9.4 Z M126.5,19 L126.5,19.2 C126.5,19.4 126.4,19.6 126.4,19.8 L126.4,19.8 C126.3,20 126.3,20.2 126.2,20.4 L126.2,20.5 C125.7,21.6 124.8,22.5 123.7,23 C123.4,23.2 123,23.3 122.7,23.4 L122.7,23.4 C122.5,23.4 122.4,23.5 122.2,23.5 L122,23.5 C121.8,23.5 121.6,23.5 121.4,23.5 L121.4,23.5 C121.2,23.5 120.9,23.5 120.7,23.5 L120.5,23.5 C120,23.4 119.6,23.3 119.2,23.1 L119.1,23.1 C118.7,22.9 118.3,22.6 117.9,22.3 L117.9,22.3 C117.5,22 117.2,21.6 117,21.2 L117,21.2 C116.9,21 116.8,20.8 116.7,20.6 L116.7,20.6 C116.4,20 116.3,19.2 116.3,18.5 C116.3,17.7 116.5,17 116.8,16.3 L116.8,16.3 C117.6,14.7 119.1,13.6 120.9,13.4 C121.1,13.4 121.3,13.4 121.4,13.4 L121.4,13.4 C124.3,13.4 126.6,15.7 126.6,18.6 L126.6,18.6 C126.6,18.6 126.5,18.8 126.5,19 L126.5,19 Z" id="Shape"></path>
            <path d="M167.9,15 L167.9,15 C167.9,12.2 165.8,9.4 161.1,9.4 C156.4,9.4 154.4,12.1 154.4,14.8 L154.4,14.8 L154.4,15 L154.4,15 C154.5,16.6 155.4,18.6 158.9,19.4 L162,20 C162.8,20.2 164.2,20.6 164.3,21.6 L164.3,21.6 C164.3,23 162.5,23.7 161.2,23.7 C159.7,23.7 158.1,22.9 158.1,21.5 L158.1,21.4 L154.5,21.4 L154.5,21.5 C154.5,24.2 156.6,27 161.3,27 C166,27 168.1,24.2 168.1,21.5 L168.1,21.4 L168.1,21.4 C168,19.8 167.2,17.8 163.6,17 L160.5,16.3 C159.8,16.2 158.2,15.7 158.2,14.7 C158.2,13.1 159.8,12.6 161.3,12.6 C162.8,12.6 164.4,13.4 164.4,14.8 L164.4,15 L167.9,15 Z" id="Path"></path>
            <path d="M133.3,18.3 C133.3,23.2 137.3,27.3 142.2,27.3 C144,27.3 145.8,26.8 147.3,25.7 L147.3,26.6 L151,26.6 L151,10 L147.4,10 L147.4,11 C146.1,10.1 144.6,9.6 143,9.4 L142.3,9.4 C137.4,9.4 133.4,13.4 133.3,18.3 Z M137.1,18.3 L137.1,18.3 C137.1,15.5 139.4,13.1 142.3,13.1 L142.3,13.1 L142.3,13.1 C142.5,13.1 142.7,13.1 142.8,13.1 C144.6,13.3 146.1,14.4 146.9,16.1 L146.9,16.1 C147.2,16.8 147.4,17.5 147.4,18.3 C147.4,19 147.3,19.7 147,20.4 L147,20.4 C146.9,20.6 146.8,20.8 146.7,21 L146.7,21 C146.5,21.4 146.1,21.8 145.8,22.1 L145.8,22.1 C145.5,22.4 145.1,22.7 144.6,22.9 L144.5,22.9 C144.1,23.1 143.6,23.2 143.2,23.3 L143,23.3 C142.8,23.3 142.5,23.3 142.3,23.3 L142.3,23.3 C142.1,23.3 141.9,23.3 141.7,23.3 L141.6,23.3 C141.4,23.3 141.3,23.3 141.1,23.2 L141.1,23.2 C140.8,23.1 140.4,23 140.1,22.8 C139,22.3 138.1,21.4 137.6,20.3 C137.6,20.3 137.6,20.2 137.6,20.2 C137.5,20 137.4,19.8 137.4,19.6 L137.4,19.6 C137.3,19.4 137.3,19.2 137.3,19 C137.3,18.9 137.3,18.9 137.3,18.8 C137.3,18.7 137.2,18.5 137.1,18.3 Z" id="Shape"></path>
        </g>
    </g>
</svg>