<?xml version="1.0" encoding="UTF-8"?>
<svg width="251px" height="255px" viewBox="0 0 251 255" version="1.1" xmlns="http://www.w3.org/2000/svg" xmlns:xlink="http://www.w3.org/1999/xlink">
    <title>dgs</title>
    <g id="Page-1" stroke="none" stroke-width="1" fill="none" fill-rule="evenodd">
        <g id="dgs" transform="translate(1.000000, 0.000000)">
            <path d="M117.9985,131.194 C119.0315,142.6315 123.8415,153.3825 131.6515,161.711 C136.0685,166.265 141.396,169.81 147.277,172.108 C153.1575,174.406 159.456,175.4045 165.749,175.0355 C176.301,175.705 186.727,172.4155 195.0355,165.7945 C200.9505,160.448 205.161,153.441 207.1325,145.6645 L166.456,145.6645 L166.456,113.9295 L250.002,113.9295 L250.002,115.72 C250.002,136.4235 242.9275,167.872 224.0395,187.357 C216.256,195.358 206.8645,201.5715 196.5025,205.576 C186.14,209.5805 175.049,211.2825 163.98,210.5675 C152.636,211.32 141.265,209.5845 130.6435,205.48 C120.022,201.3755 110.4005,194.9985 102.435,186.784 C95.811,179.926 90.3815,171.9815 86.377,163.287 L117.9985,131.194 Z M207.203,40.9314 C209.9785,42.2522 212.651,43.7849 215.197,45.51615 C226.3595,53.502 235.6565,63.8705 242.4325,75.89 L207.0615,95.089 C203.609,87.854 198.519,81.5465 192.206,76.678 C187.9475,73.5405 183.15,71.2325 178.058,69.8725 L207.203,40.9314 Z" id="Shape" fill="#FFFFFF" fill-rule="nonzero"></path>
            <path d="M133.77,115.219 C133.8055,114.527 133.8055,113.8335 133.77,113.1415 C133.9645,106.3575 132.8125,99.603 130.3825,93.278 C127.952,86.9535 124.293,81.187 119.622,76.32 C114.0955,71.2895 107.6305,67.43 100.6085,64.9695 C93.586,62.509 86.148,61.4965 78.7335,61.9925 L68.8295,61.9925 L68.8295,165.723 L84.2515,165.723 L51.1445,198.9625 L29.9219,198.9625 L29.9219,28.8965 L83.1195,28.8965 C105.332,28.8965 128.7475,32.2634 149.475,52.465 C157.7265,60.4775 164.086,70.2725 168.08,81.1195 L133.77,115.219 Z" id="Path" fill="#FFFFFF" fill-rule="nonzero"></path>
            <line x1="0" y1="250.827" x2="246.8165" y2="0.88623" id="Path" stroke="#FFFFFF" stroke-width="0.25"></line>
        </g>
    </g>
</svg>