<?xml version="1.0" encoding="UTF-8"?>
<svg width="51px" height="51px" viewBox="0 0 51 51" version="1.1" xmlns="http://www.w3.org/2000/svg" xmlns:xlink="http://www.w3.org/1999/xlink">
    <title>dgs</title>
    <g id="Page-1" stroke="none" stroke-width="1" fill="none" fill-rule="evenodd">
        <g id="dgs" transform="translate(1.000000, 0.000000)">
            <path d="M23.5997,26.2388 C23.8063,28.5263 24.7683,30.6765 26.3303,32.3422 C27.2137,33.253 28.2792,33.962 29.4554,34.4216 C30.6315,34.8812 31.8912,35.0809 33.1498,35.0071 C35.2602,35.141 37.3454,34.4831 39.0071,33.1589 C40.1901,32.0896 41.0322,30.6882 41.4265,29.1329 L33.2912,29.1329 L33.2912,22.7859 L50.0004,22.7859 L50.0004,23.144 C50.0004,27.2847 48.5855,33.5744 44.8079,37.4714 C43.2512,39.0716 41.3729,40.3143 39.3005,41.1152 C37.228,41.9161 35.0098,42.2565 32.796,42.1135 C30.5272,42.264 28.253,41.9169 26.1287,41.096 C24.0044,40.2751 22.0801,38.9997 20.487,37.3568 C19.1622,35.9852 18.0763,34.3963 17.2754,32.6574 L23.5997,26.2388 Z M41.4406,8.18628 C41.9957,8.45044 42.5302,8.75698 43.0394,9.10323 C45.2719,10.7004 47.1313,12.7741 48.4865,15.178 L41.4123,19.0178 C40.7218,17.5708 39.7038,16.3093 38.4412,15.3356 C37.5895,14.7081 36.63,14.2465 35.6116,13.9745 L41.4406,8.18628 Z" id="Shape" fill="#FFFFFF" fill-rule="nonzero"></path>
            <path d="M26.754,23.0438 C26.7611,22.9054 26.7611,22.7667 26.754,22.6283 C26.7929,21.2715 26.5625,19.9206 26.0765,18.6556 C25.5904,17.3907 24.8586,16.2374 23.9244,15.264 C22.8191,14.2579 21.5261,13.486 20.1217,12.9939 C18.7172,12.5018 17.2296,12.2993 15.7467,12.3985 L13.7659,12.3985 L13.7659,33.1446 L16.8503,33.1446 L10.2289,39.7925 L5.98438,39.7925 L5.98438,5.7793 L16.6239,5.7793 C21.0664,5.7793 25.7495,6.45268 29.895,10.493 C31.5453,12.0955 32.8172,14.0545 33.616,16.2239 L26.754,23.0438 Z" id="Path" fill="#FFFFFF" fill-rule="nonzero"></path>
            <line x1="0" y1="50.1654" x2="49.3633" y2="0.177246" id="Path" stroke="#FFFFFF" stroke-width="0.25"></line>
        </g>
    </g>
</svg>