<?xml version="1.0" encoding="UTF-8"?>
<svg width="263px" height="710px" viewBox="0 0 263 710" version="1.1" xmlns="http://www.w3.org/2000/svg" xmlns:xlink="http://www.w3.org/1999/xlink">
    <title>Maat</title>
    <g id="Page-1" stroke="none" stroke-width="1" fill="none" fill-rule="evenodd">
        <g id="Maat" transform="translate(0.000000, 2.000000)">
            <path d="M19.746453,657.55628 C19.746453,657.55628 19.912173,655.14735 19.772453,658.3487 C19.632773,661.55005 20.061263,701.06425 18.896723,706.31753 L17.530993,706.31753 C15.958103,701.02058 16.360223,661.53576 16.231363,658.27787 C16.102503,655.01998 16.131963,657.54824 16.131963,657.54824 L16.132013,657.54824 L15.964863,214.3346 C13.075333,213.93036 13.211863,212.0241 12.250383,206.76173 C11.288913,201.49937 3.362503,198.7695 3.542623,197.7916 C3.722733,196.8137 4.968663,197.01398 5.858913,196.55989 C6.749163,196.1058 8.140013,195.79012 8.779853,195.48957 C9.419693,195.18903 11.265623,195.09898 12.251013,194.92986 C13.236403,194.76074 13.705963,194.6075 14.693663,194.48519 C15.681363,194.36288 15.757723,194.2539 17.857143,194.2539 C19.956563,194.2539 20.032923,194.36288 21.020623,194.48519 C22.008323,194.6075 22.477883,194.76074 23.463273,194.92986 C24.448663,195.09898 26.294593,195.18903 26.934433,195.48957 C27.574273,195.79012 28.965123,196.1058 29.855373,196.55989 C30.745623,197.01398 31.991553,196.8137 32.171663,197.7916 C32.351783,198.7695 24.425373,201.49937 23.463903,206.76173 C22.502423,212.0241 22.638953,213.93036 19.651943,214.3483 L19.746453,657.55628 Z" id="path6961" stroke="#00FFFF" stroke-width="0.5" fill="#008080" stroke-linecap="round" stroke-linejoin="round"></path>
            <path d="M245.32673,251.2989 L261.82941,252.26139 L262.37538,221.88187 C263.08939,210.27559 262.46198,205.5704 260.11578,197.85455 C253.66814,170.22214 246.48589,142.43514 234.09304,113.55146 C224.59043,96.47339 223.96699,72.88837 189.59137,74.03812 C181.12626,73.66533 172.64667,73.8169 164.12809,75.38134 C161.38171,76.74512 144.37247,77.69289 141.42789,103.68829 C157.66615,103.36155 161.88776,109.43243 177.1477,115.5628 L180.75297,117.79722 L185.13205,129.73589 C180.50158,134.99703 178.18569,149.45913 176.77422,167.26254 C174.948,192.70853 174.5126,218.22439 172.49043,243.65902 L196.86715,244.62387 L203.3667,223.88895 L236.39145,205.58509 C245.08992,213.04289 241.90515,211.63243 245.99206,233.3694 C245.6383,238.52495 245.98166,244.52678 245.32673,251.2989 L245.32673,251.2989 Z" id="path2678" stroke="#000000" stroke-width="0.20450109" fill="#000000" stroke-linecap="round" stroke-linejoin="round"></path>
            <g id="g31803" transform="translate(237.152289, 238.655003)" fill="#FDE642" stroke="#DA121A" stroke-linecap="round" stroke-linejoin="round" stroke-width="0.5">
                <polygon id="path31805" points="0.910756122 0.107197066 24.8813448 1.220871 24.6692061 13.5773746 0.0622430515 13.1000855 0.910756122 0.107197066"></polygon>
            </g>
            <g id="g15427" transform="translate(238.711676, 240.210414)" stroke="#DA121A" stroke-linecap="round" stroke-linejoin="round" stroke-width="0.6299904">
                <line x1="0.300003528" y1="0.196061412" x2="21.974672" y2="1.02104854" id="path15429"></line>
                <line x1="0.225005271" y1="2.1460308" x2="21.8996738" y2="2.97101793" id="path15431"></line>
                <line x1="0.225005271" y1="4.2459988" x2="21.8996738" y2="5.07098593" id="path15433"></line>
                <line x1="0.150007014" y1="6.19596818" x2="21.8246755" y2="7.02095531" id="path15435"></line>
                <line x1="0.225005271" y1="8.22094003" x2="21.8996738" y2="8.89592854" id="path15437"></line>
                <line x1="0.075008757" y1="10.3209059" x2="21.8246755" y2="10.8458979" id="path15439"></line>
            </g>
            <path d="M159.70898,679.34664 C159.85658,678.98698 160.13055,676.80316 160.12427,676.4847 L162.15769,646.68592 L165.76388,646.68592 L163.85471,674.68694 C157.98408,684.13379 128.3154,697.66067 111.45889,700.56665 L102.44342,699.61207 C101.39205,702.2788 99.9092,706.26464 106.04961,707.11658 C166.14254,706.90181 150.56231,705.97325 174.31115,705.11675 C175.90714,708.11939 187.79466,706.75135 189.52229,706.50624 C193.13837,705.1052 193.95656,698.34801 193.34062,696.74832 C191.97412,693.19939 191.09987,687.89662 190.15868,683.17209 C188.68564,671.08075 189.55857,658.9894 189.52229,646.89806 C195.50875,609.06842 193.37062,566.78409 190.58294,533.40915 C196.17725,482.27483 202.35662,425.57189 204.58344,373.67615 C231.99725,355.51578 196.62935,306.30059 199.49235,297.73405 C203.23426,272.34703 214.55258,249.99057 226.64483,227.94368 L227.06908,227.94368 L227.06908,230.27709 L226.00845,245.12611 C225.45026,268.46767 229.90713,297.04789 228.64188,317.50284 C223.71802,343.25792 226.32248,367.90015 228.97825,393.40413 L229.19039,406.34399 L248.49409,406.76824 L249.34262,393.82839 C252.75409,371.41346 254.68656,348.99851 253.58519,326.58357 C253.98402,323.87736 253.8993,321.63494 252.83521,318.94693 C253.98221,294.55212 254.07711,270.15731 253.58519,245.76249 L253.79733,231.762 C254.26356,227.70282 254.88518,223.48083 255.28222,219.67065 C257.19669,200.79204 250.56663,191.07598 239.79682,187.00282 C224.40162,181.18032 211.09238,178.06171 197.15895,174.16903 L157.25521,169.39613 L115.06509,185.30579 C96.07608,193.3066 98.82362,208.55292 96.82201,222.2162 L93.21582,236.64096 C85.55442,263.10579 79.24335,289.79568 74.97275,316.82564 C57.0213,338.78739 42.21701,362.75187 30.48799,388.67335 L25.08807,397.6732 L35.88791,408.17305 L43.3878,399.17319 C57.66099,385.02686 80.21265,362.74195 91.08706,336.77414 C94.43958,334.47694 95.30884,330.17697 95.85372,327.36068 C108.02906,299.10415 116.82009,258.90279 120.15335,242.01198 L123.18656,226.82581 L124.08657,224.57585 L124.98655,224.57585 L124.98655,229.52577 C123.59843,236.07567 122.77482,242.62557 122.58658,249.17547 C121.18861,252.41472 120.63575,253.88355 123.78657,254.2754 C125.21503,258.61798 131.2894,265.17595 133.68643,267.1752 C143.49928,274.03835 141.37361,282.23735 140.28631,289.97485 C129.06158,369.85285 118.87019,404.65752 142.08628,518.57137 C140.22923,532.14541 143.28626,542.771 143.88626,554.87081 C140.70607,585.47034 138.29621,616.06988 138.48634,646.66942 C138.31944,685.10047 126.73032,676.5842 78.15468,700.24844 L70.51802,699.82418 C68.20844,702.69969 69.55038,706.00552 70.9423,707.03657 L105.41323,707.11658 C99.85101,705.68687 101.65043,702.33158 102.48922,699.56712 L111.60581,700.58915 C135.38446,695.06343 153.04689,684.41911 159.70898,679.34664 Z" id="path2668" stroke="#00FF00" stroke-width="0.5" fill="#000000" stroke-linecap="round" stroke-linejoin="round"></path>
            <path d="M28.47622,397.42174 C20.86854,397.87583 11.50928,399.79313 4.49341,409.10995 L0.53543,411.06416 C2.09288,415.60143 6.22796,413.4813 7.68727,411.33031 C6.75844,413.26677 7.02242,414.58723 9.39308,414.81972 C8.71092,416.64348 9.26689,417.79141 11.46264,418.04426 C10.11345,419.77646 11.34544,421.53615 13.41097,421.35709 C12.46983,423.6499 13.63905,424.77413 14.89071,424.91834 C18.09791,426.67862 33.92971,409.61058 35.57321,408.13666" id="path2694" stroke="#00FF00" stroke-width="0.5" fill="#000000" stroke-linecap="round" stroke-linejoin="round"></path>
            <g id="g22363" transform="translate(217.479600, 424.626738)" stroke-linecap="round" stroke-linejoin="round" stroke-width="0.5">
                <path d="M16.4911117,74.5949163 C19.1346795,73.7311575 21.3006117,74.0614824 23.3852982,74.5949163 L22.1696667,41.5204203 L37.9194267,42.5721683 C37.4377507,40.2034044 37.2747743,37.8346195 37.9194267,35.4658556 L22.1696667,36.5705017 L22.1696667,36.5705017 C25.4681284,30.6747576 30.0935998,25.4465722 31.7569551,16.8245866 C35.1185503,-0.600233853 26.2335037,0.131667994 20.0696987,0.0759138432 C13.3589779,0.0152037683 3.45280938,1.06417978 7.57426958,17.5670303 C9.46999469,25.1577636 14.0914279,31.1274477 17.8197321,36.5705017 L17.8197321,36.5705017 L0.120002671,35.4658556 C0.714089918,37.8346195 0.656664194,40.2034044 0.120002671,42.5721683 L17.8197321,41.5204203 L17.8197321,41.5204203 L16.4911117,74.5949163 L16.4911117,74.5949163 Z" id="path2718" stroke="#00FFFF" fill="#FF00FF"></path>
                <path d="M17.8197321,31.7005709 C14.4180569,27.0822583 11.1539695,22.5695321 10.3319476,16.6124479 C8.67019038,4.56986636 14.9230236,3.22477386 19.9816575,3.19413533 C24.479264,3.16752873 31.1263725,3.80501602 28.150764,16.5063785 C26.7547011,22.4654577 24.5830759,27.826361 22.1696667,31.7005709 C20.6589308,33.7461078 19.0363926,33.4115619 17.8197321,31.7005709 L17.8197321,31.7005709 Z" id="path2720" stroke="#000000" fill="#000000"></path>
            </g>
            <path d="M228.97825,406.45006 C228.0043,411.31876 225.59929,416.47365 223.25077,421.61727 C220.14624,426.5447 219.94446,432.83301 220.81128,438.79972 L220.49312,444.42112 C229.23484,445.46743 220.78886,433.80053 226.32664,429.46603 L227.17515,437.52693 C228.76025,439.03561 230.32284,440.22954 231.62986,437.84513 C233.18547,439.58739 234.74109,439.46154 236.2967,437.52693 C238.19866,439.98618 239.75144,438.25511 241.38778,437.52693 C243.13157,438.89098 244.97759,439.37572 246.16069,436.25416 C246.50462,427.74009 249.0518,419.4719 248.44107,406.98039" id="path2716" stroke="#00FF00" stroke-width="0.5" fill="#000000" stroke-linecap="round" stroke-linejoin="round"></path>
            <g id="g23466" transform="translate(129.029403, 169.300626)">
                <path d="M93.8934332,12.1347533 L67.1071864,4.33989887 L27.9416702,0.147354755 L0.157896594,10.5601574 C5.15472845,33.5226271 23.2270531,44.7632644 45.2896529,45.533772 C66.1860144,46.2610309 76.0162166,41.0172617 82.9334272,33.8559172 C89.508343,27.0489402 92.6672199,18.5122049 93.8934332,12.1347533 L93.8934332,12.1347533 Z" id="path17950" stroke="#000000" stroke-width="0.5" fill="#FF00FF" stroke-linecap="round" stroke-linejoin="round"></path>
                <path d="M82.7601379,8.87859121 C78.1447232,27.9525795 66.1841035,35.0216136 44.9629608,33.9161149 C24.3896163,32.8443626 13.712791,20.2030928 11.5891354,7.34605556 L11.2545685,6.40394901" id="path22080" stroke="#000000" stroke-width="4.00191366" stroke-linejoin="round"></path>
                <path d="M72.514436,5.93538525 C68.2789685,20.8543664 59.5677553,24.0047951 45.5209013,23.2821226 C32.3396542,22.6039821 22.2285393,13.8872417 22.3193209,3.07538844 L22.0841245,2.34238411" id="path19147" stroke="#00FFFF" stroke-width="2.45571925"></path>
                <path d="M79.3467449,7.94503783 C75.8171817,21.4079558 68.0185305,31.5859778 45.2718661,30.2998104 C26.0651178,29.2138035 16.4645471,16.7446135 15.2797872,5.67602031 L15.0681944,4.98807709" id="path20126" stroke="#00FFFF" stroke-width="2.45571925"></path>
                <path d="M69.1761799,4.90059872 C69.104004,5.13070272 69.1439874,5.08348494 69.0704675,5.32082542 C67.002692,11.9971991 64.1461055,21.2946331 45.5747025,19.6511582 C32.9754615,18.5361886 26.4063836,10.9307639 26.0196325,3.90825254 C26.0011528,3.39042984 25.8188966,2.12564011 25.7993249,1.47443583 L25.6631629,1.03098979" id="path20138" stroke="#000000" stroke-width="3.60172181"></path>
                <path d="M75.9140322,6.98125122 C71.3382019,25.0619631 57.3503151,27.6929332 45.1015167,26.8085464 C28.2940658,25.5905859 19.296207,15.1560738 18.7943356,4.13646447 L18.5958676,3.60862491" id="path20140" stroke="#000000" stroke-width="3.60172181"></path>
                <path d="M89.3541844,10.8059901 C84.0682289,31.0300344 72.0670168,42.0341901 45.7629436,40.7632768 C45.6566433,40.7581424 45.5501329,40.7528085 45.4433915,40.7472772 C45.4402416,40.7471155 45.4370916,40.7469622 45.4339417,40.7467942 C14.9080928,39.16379 7.24039567,19.4916867 4.86667584,9.71191521 L4.5738773,8.96685496" id="path18173" stroke="#FDE642" stroke-width="8.98296992"></path>
                <g id="g39880" transform="translate(33.554799, 39.043732) scale(-1, 1) rotate(-17.839020) translate(-33.554799, -39.043732) translate(31.533633, 34.889112)" stroke="#DA121A" stroke-width="0.5">
                    <path d="M0.0575111719,6.09338378 C0.0275462546,4.41854186 1.15571427,1.83357536 2.09392183,0.201445181 C2.94888876,1.84998275 4.0261975,4.49491276 4.01927372,6.06804285 C4.00619244,9.09257489 0.109706676,8.94081672 0.0575111719,6.09338378 Z" id="path22816"></path>
                    <path d="M0.580775477,6.05278978 C0.558677389,4.81233922 1.39089722,2.89780715 2.08299181,1.68898785 C2.71368786,2.90995661 3.50839483,4.86890044 3.50328581,6.03402212 C3.4936493,8.27411247 0.619274209,8.16171316 0.580775477,6.05279651 L0.580775477,6.05278978 Z" id="path22874"></path>
                    <path d="M0.592612776,5.99454425 C0.80509128,5.8016239 1.32653204,5.44047512 2.03047292,5.44047512 C2.73441155,5.44047512 3.13265548,5.6958585 3.44614515,5.96919208" id="path24814" stroke-linecap="round" stroke-linejoin="round"></path>
                    <path d="M1.0949625,3.91854567 C1.35794996,3.73830028 1.84789645,3.63390703 2.07196747,3.63703086 C2.31469835,3.64024227 2.78273315,3.80367379 2.98258835,3.93122063" id="path26759" stroke-linecap="round" stroke-linejoin="round"></path>
                </g>
                <g id="g39886" transform="translate(38.035375, 39.956097) scale(-1, 1) rotate(-12.281742) translate(-38.035375, -39.956097) translate(36.014208, 35.801476)" stroke="#DA121A" stroke-width="0.5">
                    <g id="g42310">
                        <path d="M0.057511183,6.09338496 C0.0275462599,4.41854271 1.1557145,1.83357572 2.09392223,0.201445219 C2.94888933,1.8499831 4.02619827,4.49491363 4.01927449,6.06804401 C4.00619321,9.09257664 0.109706697,8.94081844 0.057511183,6.09338496 Z" id="path39888"></path>
                        <path d="M0.580775589,6.05279094 C0.558677497,4.81234014 1.39089748,2.89780771 2.08299221,1.68898817 C2.71368838,2.90995716 3.50839551,4.86890138 3.50328649,6.03402328 C3.49364997,8.27411406 0.619274328,8.16171472 0.580775589,6.05279768 L0.580775589,6.05279094 Z" id="path39890"></path>
                        <path d="M0.59261289,5.9945454 C0.805091435,5.80162501 1.3265323,5.44047616 2.03047331,5.44047616 C2.73441208,5.44047616 3.13265608,5.69585959 3.44614581,5.96919323" id="path39892" stroke-linecap="round" stroke-linejoin="round"></path>
                        <path d="M1.09496271,3.91854643 C1.35795022,3.738301 1.84789681,3.63390773 2.07196787,3.63703156 C2.31469879,3.64024296 2.78273369,3.80367453 2.98258892,3.93122139" id="path39894" stroke-linecap="round" stroke-linejoin="round"></path>
                    </g>
                </g>
                <g id="g39896" transform="translate(29.005967, 37.572015) scale(-1, 1) rotate(-23.539711) translate(-29.005967, -37.572015) translate(26.984801, 33.417395)" stroke="#DA121A" stroke-width="0.5">
                    <path d="M0.0575111732,6.09338392 C0.0275462552,4.41854196 1.1557143,1.8335754 2.09392188,0.201445185 C2.94888883,1.84998279 4.02619758,4.49491286 4.0192738,6.06804298 C4.00619253,9.09257509 0.109706678,8.94081692 0.0575111732,6.09338392 Z" id="path39898"></path>
                    <path d="M0.58077549,6.05278991 C0.558677401,4.81233932 1.39089725,2.89780721 2.08299186,1.68898788 C2.71368792,2.90995667 3.50839491,4.86890055 3.50328589,6.03402225 C3.49364938,8.27411265 0.619274222,8.16171333 0.58077549,6.05279665 L0.58077549,6.05278991 Z" id="path39900"></path>
                    <path d="M0.592612789,5.99454438 C0.805091298,5.80162402 1.32653207,5.44047524 2.03047296,5.44047524 C2.73441161,5.44047524 3.13265554,5.69585862 3.44614522,5.96919221" id="path39902" stroke-linecap="round" stroke-linejoin="round"></path>
                    <path d="M1.09496252,3.91854576 C1.35794999,3.73830037 1.84789649,3.63390711 2.07196752,3.63703093 C2.3146984,3.64024234 2.78273321,3.80367388 2.98258841,3.93122072" id="path39904" stroke-linecap="round" stroke-linejoin="round"></path>
                </g>
                <g id="g39906" transform="translate(47.067907, 40.855801) scale(-1, 1) rotate(-0.728640) translate(-47.067907, -40.855801) translate(45.046740, 36.701181)" stroke="#DA121A" stroke-width="0.5">
                    <path d="M0.0575111761,6.09338422 C0.0275462566,4.41854218 1.15571436,1.8335755 2.09392198,0.201445195 C2.94888898,1.84998288 4.02619779,4.49491309 4.01927401,6.06804329 C4.00619273,9.09257555 0.109706684,8.94081737 0.0575111761,6.09338422 Z" id="path39908"></path>
                    <path d="M0.580775519,6.05279021 C0.55867743,4.81233956 1.39089732,2.89780736 2.08299196,1.68898797 C2.71368805,2.90995682 3.50839509,4.86890079 3.50328607,6.03402256 C3.49364955,8.27411307 0.619274253,8.16171374 0.580775519,6.05279695 L0.580775519,6.05279021 Z" id="path39910"></path>
                    <path d="M0.592612819,5.99454468 C0.805091338,5.80162432 1.32653214,5.44047551 2.03047307,5.44047551 C2.73441175,5.44047551 3.1326557,5.69585891 3.4461454,5.96919251" id="path39912" stroke-linecap="round" stroke-linejoin="round"></path>
                    <path d="M1.09496258,3.91854596 C1.35795005,3.73830055 1.84789659,3.63390729 2.07196762,3.63703112 C2.31469851,3.64024253 2.78273335,3.80367407 2.98258856,3.93122092" id="path39914" stroke-linecap="round" stroke-linejoin="round"></path>
                </g>
                <g id="g39916" transform="translate(51.555573, 40.912276) scale(-1, 1) rotate(1.526416) translate(-51.555573, -40.912276) translate(49.534407, 36.757655)" stroke="#DA121A" stroke-width="0.5">
                    <path d="M0.0575111765,6.09338427 C0.0275462568,4.41854221 1.15571437,1.83357551 2.093922,0.201445197 C2.948889,1.84998289 4.02619781,4.49491312 4.01927403,6.06804333 C4.00619276,9.09257561 0.109706684,8.94081743 0.0575111765,6.09338427 Z" id="path39918"></path>
                    <path d="M0.580775523,6.05279026 C0.558677433,4.8123396 1.39089733,2.89780738 2.08299198,1.68898798 C2.71368807,2.90995684 3.50839511,4.86890083 3.50328609,6.0340226 C3.49364958,8.27411313 0.619274258,8.1617138 0.580775523,6.05279699 L0.580775523,6.05279026 Z" id="path39920"></path>
                    <path d="M0.592612823,5.99454472 C0.805091344,5.80162436 1.32653215,5.44047555 2.03047308,5.44047555 C2.73441177,5.44047555 3.13265572,5.69585895 3.44614542,5.96919255" id="path39922" stroke-linecap="round" stroke-linejoin="round"></path>
                    <path d="M1.09496259,3.91854598 C1.35795006,3.73830058 1.8478966,3.63390732 2.07196763,3.63703114 C2.31469853,3.64024255 2.78273337,3.80367409 2.98258858,3.93122094" id="path39924" stroke-linecap="round" stroke-linejoin="round"></path>
                </g>
                <g id="g39926" transform="translate(42.424072, 40.644340) scale(-1, 1) rotate(-0.728640) translate(-42.424072, -40.644340) translate(39.841470, 36.152858)" stroke="#DA121A" stroke-width="0.5">
                    <g id="g42304" transform="translate(2.484873, 4.411159) rotate(-6.426353) translate(-2.484873, -4.411159) translate(0.463707, 0.256538)">
                        <path d="M0.0575111792,6.09338456 C0.0275462581,4.41854242 1.15571442,1.8335756 2.0939221,0.201445206 C2.94888914,1.84998298 4.02619801,4.49491333 4.01927423,6.06804362 C4.00619295,9.09257605 0.10970669,8.94081786 0.0575111792,6.09338456 Z" id="path39928"></path>
                        <path d="M0.580775551,6.05279055 C0.55867746,4.81233983 1.39089739,2.89780752 2.08299208,1.68898806 C2.7136882,2.90995698 3.50839528,4.86890106 3.50328626,6.03402289 C3.49364974,8.27411353 0.619274288,8.1617142 0.580775551,6.05279729 L0.580775551,6.05279055 Z" id="path39930"></path>
                        <path d="M0.592612851,5.99454501 C0.805091383,5.80162464 1.32653221,5.44047581 2.03047318,5.44047581 C2.7344119,5.44047581 3.13265587,5.69585922 3.44614559,5.96919284" id="path39932" stroke-linecap="round" stroke-linejoin="round"></path>
                        <path d="M1.09496264,3.91854617 C1.35795013,3.73830076 1.84789669,3.63390749 2.07196773,3.63703132 C2.31469864,3.64024273 2.78273351,3.80367428 2.98258873,3.93122113" id="path39934" stroke-linecap="round" stroke-linejoin="round"></path>
                    </g>
                </g>
                <g id="g40118" transform="translate(82.604430, 26.105194) scale(-1, 1) rotate(55.906130) translate(-82.604430, -26.105194) translate(80.583264, 21.950574)" stroke="#DA121A" stroke-width="0.5">
                    <path d="M0.0575111716,6.09338375 C0.0275462545,4.41854184 1.15571427,1.83357535 2.09392182,0.20144518 C2.94888875,1.84998274 4.02619747,4.49491274 4.0192737,6.06804282 C4.00619242,9.09257485 0.109706675,8.94081668 0.0575111716,6.09338375 Z" id="path40120"></path>
                    <path d="M0.580775474,6.05278974 C0.558677386,4.81233919 1.39089721,2.89780713 2.0829918,1.68898784 C2.71368784,2.90995659 3.50839481,4.86890041 3.5032858,6.03402209 C3.49364928,8.27411243 0.619274205,8.16171311 0.580775474,6.05279648 L0.580775474,6.05278974 Z" id="path40122"></path>
                    <path d="M0.592612773,5.99454422 C0.805091276,5.80162387 1.32653204,5.44047509 2.03047291,5.44047509 C2.73441154,5.44047509 3.13265546,5.69585847 3.44614513,5.96919205" id="path40124" stroke-linecap="round" stroke-linejoin="round"></path>
                    <path d="M1.09496249,3.91854565 C1.35794995,3.73830026 1.84789644,3.63390701 2.07196746,3.63703084 C2.31469833,3.64024225 2.78273314,3.80367377 2.98258833,3.93122061" id="path40126" stroke-linecap="round" stroke-linejoin="round"></path>
                </g>
                <g id="g40128" transform="translate(85.192702, 21.874956) scale(-1, 1) rotate(61.536099) translate(-85.192702, -21.874956) translate(83.171535, 17.720335)" stroke="#DA121A" stroke-width="0.5">
                    <path d="M0.0575111765,6.09338427 C0.0275462568,4.41854221 1.15571437,1.83357551 2.093922,0.201445197 C2.948889,1.84998289 4.02619782,4.49491312 4.01927404,6.06804333 C4.00619276,9.09257562 0.109706685,8.94081744 0.0575111765,6.09338427 Z" id="path40130"></path>
                    <path d="M0.580775523,6.05279026 C0.558677434,4.8123396 1.39089733,2.89780738 2.08299198,1.68898798 C2.71368807,2.90995684 3.50839511,4.86890083 3.50328609,6.0340226 C3.49364958,8.27411313 0.619274258,8.16171381 0.580775523,6.052797 L0.580775523,6.05279026 Z" id="path40132"></path>
                    <path d="M0.592612823,5.99454473 C0.805091345,5.80162436 1.32653215,5.44047555 2.03047308,5.44047555 C2.73441177,5.44047555 3.13265573,5.69585895 3.44614542,5.96919256" id="path40134" stroke-linecap="round" stroke-linejoin="round"></path>
                    <path d="M1.09496259,3.91854599 C1.35795006,3.73830058 1.8478966,3.63390732 2.07196764,3.63703115 C2.31469853,3.64024256 2.78273337,3.8036741 2.98258859,3.93122095" id="path40136" stroke-linecap="round" stroke-linejoin="round"></path>
                </g>
                <g id="g40138" transform="translate(79.786000, 29.739071) scale(-1, 1) rotate(47.391190) translate(-79.786000, -29.739071) translate(77.764833, 25.584451)" stroke="#DA121A" stroke-width="0.5">
                    <path d="M0.0575111696,6.09338354 C0.0275462535,4.41854168 1.15571423,1.83357529 2.09392175,0.201445173 C2.94888865,1.84998267 4.02619734,4.49491258 4.01927356,6.06804261 C4.00619228,9.09257453 0.109706671,8.94081637 0.0575111696,6.09338354 Z" id="path40140"></path>
                    <path d="M0.580775454,6.05278954 C0.558677367,4.81233903 1.39089716,2.89780703 2.08299173,1.68898778 C2.71368775,2.90995649 3.50839469,4.86890025 3.50328568,6.03402188 C3.49364916,8.27411215 0.619274184,8.16171283 0.580775454,6.05279627 L0.580775454,6.05278954 Z" id="path40142"></path>
                    <path d="M0.592612752,5.99454401 C0.805091248,5.80162367 1.32653199,5.4404749 2.03047284,5.4404749 C2.73441144,5.4404749 3.13265535,5.69585827 3.44614501,5.96919185" id="path40144" stroke-linecap="round" stroke-linejoin="round"></path>
                    <path d="M1.09496246,3.91854552 C1.3579499,3.73830014 1.84789638,3.63390689 2.07196739,3.63703071 C2.31469826,3.64024212 2.78273304,3.80367364 2.98258823,3.93122048" id="path40146" stroke-linecap="round" stroke-linejoin="round"></path>
                </g>
                <g id="g40148" transform="translate(88.430634, 13.509199) scale(-1, 1) rotate(74.071473) translate(-88.430634, -13.509199) translate(86.409467, 9.354579)" stroke="#DA121A" stroke-width="0.5">
                    <path d="M0.0575111762,6.09338424 C0.0275462567,4.41854219 1.15571436,1.8335755 2.09392199,0.201445196 C2.94888899,1.84998288 4.0261978,4.4949131 4.01927402,6.0680433 C4.00619274,9.09257558 0.109706684,8.9408174 0.0575111762,6.09338424 Z" id="path40150"></path>
                    <path d="M0.580775521,6.05279023 C0.558677431,4.81233958 1.39089732,2.89780737 2.08299197,1.68898797 C2.71368806,2.90995682 3.5083951,4.86890081 3.50328608,6.03402258 C3.49364956,8.2741131 0.619274255,8.16171377 0.580775521,6.05279697 L0.580775521,6.05279023 Z" id="path40152"></path>
                    <path d="M0.59261282,5.9945447 C0.805091341,5.80162433 1.32653214,5.44047553 2.03047307,5.44047553 C2.73441176,5.44047553 3.13265571,5.69585893 3.44614541,5.96919253" id="path40154" stroke-linecap="round" stroke-linejoin="round"></path>
                    <path d="M1.09496258,3.91854597 C1.35795006,3.73830057 1.84789659,3.6339073 2.07196763,3.63703113 C2.31469852,3.64024254 2.78273336,3.80367408 2.98258857,3.93122093" id="path40156" stroke-linecap="round" stroke-linejoin="round"></path>
                </g>
                <g id="g40168" transform="translate(86.948571, 17.647447) scale(-1, 1) rotate(68.606251) translate(-86.948571, -17.647447) translate(84.927405, 13.492826)" stroke="#DA121A" stroke-width="0.5">
                    <path d="M0.0575111773,6.09338436 C0.0275462572,4.41854227 1.15571438,1.83357554 2.09392203,0.2014452 C2.94888904,1.84998292 4.02619787,4.49491318 4.01927409,6.06804342 C4.00619281,9.09257575 0.109706686,8.94081756 0.0575111773,6.09338436 Z" id="path40170"></path>
                    <path d="M0.580775532,6.05279034 C0.558677442,4.81233967 1.39089735,2.89780742 2.08299201,1.688988 C2.71368811,2.90995688 3.50839516,4.8689009 3.50328614,6.03402269 C3.49364963,8.27411325 0.619274267,8.16171392 0.580775532,6.05279708 L0.580775532,6.05279034 Z" id="path40172"></path>
                    <path d="M0.592612832,5.99454481 C0.805091356,5.80162444 1.32653217,5.44047563 2.03047311,5.44047563 C2.73441181,5.44047563 3.13265577,5.69585903 3.44614547,5.96919264" id="path40174" stroke-linecap="round" stroke-linejoin="round"></path>
                    <path d="M1.0949626,3.91854604 C1.35795008,3.73830063 1.84789663,3.63390737 2.07196766,3.6370312 C2.31469856,3.64024261 2.78273341,3.80367415 2.98258863,3.931221" id="path40176" stroke-linecap="round" stroke-linejoin="round"></path>
                </g>
                <g id="g40178" transform="translate(72.740144, 35.650887) scale(-1, 1) rotate(30.843387) translate(-72.740144, -35.650887) translate(70.718977, 31.496266)" stroke="#DA121A" stroke-width="0.5">
                    <path d="M0.0575111749,6.0933841 C0.027546256,4.41854209 1.15571433,1.83357546 2.09392194,0.201445191 C2.94888892,1.84998284 4.0261977,4.49491299 4.01927392,6.06804316 C4.00619265,9.09257536 0.109706681,8.94081719 0.0575111749,6.0933841 Z" id="path40180"></path>
                    <path d="M0.580775507,6.05279009 C0.558677418,4.81233947 1.39089729,2.8978073 2.08299192,1.68898793 C2.713688,2.90995676 3.50839501,4.86890069 3.50328599,6.03402243 C3.49364948,8.2741129 0.619274241,8.16171358 0.580775507,6.05279683 L0.580775507,6.05279009 Z" id="path40182"></path>
                    <path d="M0.592612806,5.99454456 C0.805091322,5.8016242 1.32653211,5.4404754 2.03047303,5.4404754 C2.73441169,5.4404754 3.13265564,5.69585879 3.44614533,5.96919239" id="path40184" stroke-linecap="round" stroke-linejoin="round"></path>
                    <path d="M1.09496255,3.91854588 C1.35795003,3.73830048 1.84789655,3.63390722 2.07196758,3.63703104 C2.31469847,3.64024245 2.7827333,3.80367399 2.9825885,3.93122084" id="path40186" stroke-linecap="round" stroke-linejoin="round"></path>
                </g>
                <g id="g40188" transform="translate(76.282094, 33.120912) scale(-1, 1) rotate(40.196388) translate(-76.282094, -33.120912) translate(74.260927, 28.966292)" stroke="#DA121A" stroke-width="0.5">
                    <path d="M0.0575111744,6.09338405 C0.0275462558,4.41854205 1.15571432,1.83357544 2.09392192,0.201445189 C2.94888889,1.84998283 4.02619767,4.49491296 4.01927389,6.06804311 C4.00619261,9.09257529 0.109706681,8.94081712 0.0575111744,6.09338405 Z" id="path40190"></path>
                    <path d="M0.580775502,6.05279004 C0.558677414,4.81233943 1.39089728,2.89780727 2.0829919,1.68898792 C2.71368798,2.90995673 3.50839499,4.86890065 3.50328597,6.03402239 C3.49364945,8.27411284 0.619274236,8.16171351 0.580775502,6.05279678 L0.580775502,6.05279004 Z" id="path40192"></path>
                    <path d="M0.592612802,5.99454451 C0.805091316,5.80162415 1.3265321,5.44047536 2.03047301,5.44047536 C2.73441167,5.44047536 3.13265561,5.69585875 3.4461453,5.96919234" id="path40194" stroke-linecap="round" stroke-linejoin="round"></path>
                    <path d="M1.09496255,3.91854584 C1.35795001,3.73830045 1.84789653,3.63390719 2.07196756,3.63703101 C2.31469845,3.64024242 2.78273327,3.80367396 2.98258848,3.9312208" id="path40196" stroke-linecap="round" stroke-linejoin="round"></path>
                </g>
                <g id="g40198" transform="translate(68.702491, 37.789843) scale(-1, 1) rotate(24.626391) translate(-68.702491, -37.789843) translate(66.681325, 33.635223)" stroke="#DA121A" stroke-width="0.5">
                    <path d="M0.0575111701,6.09338359 C0.0275462537,4.41854172 1.15571424,1.83357531 2.09392176,0.201445174 C2.94888867,1.84998269 4.02619737,4.49491262 4.01927359,6.06804265 C4.00619231,9.0925746 0.109706672,8.94081644 0.0575111701,6.09338359 Z" id="path40200"></path>
                    <path d="M0.580775458,6.05278958 C0.558677371,4.81233906 1.39089717,2.89780705 2.08299174,1.68898779 C2.71368777,2.90995651 3.50839472,4.86890028 3.5032857,6.03402193 C3.49364919,8.27411221 0.619274189,8.16171289 0.580775458,6.05279632 L0.580775458,6.05278958 Z" id="path40202"></path>
                    <path d="M0.592612757,5.99454405 C0.805091254,5.80162371 1.326532,5.44047494 2.03047286,5.44047494 C2.73441146,5.44047494 3.13265537,5.69585831 3.44614504,5.96919189" id="path40204" stroke-linecap="round" stroke-linejoin="round"></path>
                    <path d="M1.09496246,3.91854555 C1.35794991,3.73830016 1.84789639,3.63390691 2.0719674,3.63703074 C2.31469827,3.64024215 2.78273306,3.80367367 2.98258825,3.93122051" id="path40206" stroke-linecap="round" stroke-linejoin="round"></path>
                </g>
                <g id="g40208" transform="translate(60.270216, 40.134865) scale(-1, 1) rotate(11.278870) translate(-60.270216, -40.134865) translate(58.249049, 35.980244)" stroke="#DA121A" stroke-width="0.5">
                    <path d="M0.0575111719,6.09338378 C0.0275462546,4.41854186 1.15571427,1.83357536 2.09392183,0.201445181 C2.94888876,1.84998275 4.0261975,4.49491276 4.01927372,6.06804285 C4.00619244,9.09257489 0.109706676,8.94081672 0.0575111719,6.09338378 Z" id="path40210"></path>
                    <path d="M0.580775477,6.05278978 C0.558677389,4.81233922 1.39089722,2.89780715 2.08299181,1.68898785 C2.71368786,2.9099566 3.50839483,4.86890044 3.50328581,6.03402212 C3.4936493,8.27411247 0.619274209,8.16171315 0.580775477,6.05279651 L0.580775477,6.05278978 Z" id="path40212"></path>
                    <path d="M0.592612776,5.99454425 C0.80509128,5.8016239 1.32653204,5.44047512 2.03047292,5.44047512 C2.73441155,5.44047512 3.13265547,5.6958585 3.44614515,5.96919208" id="path40214" stroke-linecap="round" stroke-linejoin="round"></path>
                    <path d="M1.0949625,3.91854567 C1.35794996,3.73830028 1.84789645,3.63390703 2.07196747,3.63703086 C2.31469835,3.64024226 2.78273315,3.80367379 2.98258835,3.93122063" id="path40216" stroke-linecap="round" stroke-linejoin="round"></path>
                </g>
                <g id="g40218" transform="translate(64.534840, 39.172411) scale(-1, 1) rotate(16.891666) translate(-64.534840, -39.172411) translate(62.513673, 35.017791)" stroke="#DA121A" stroke-width="0.5">
                    <path d="M0.0575111698,6.09338356 C0.0275462536,4.4185417 1.15571423,1.8335753 2.09392175,0.201445173 C2.94888866,1.84998268 4.02619735,4.4949126 4.01927357,6.06804263 C4.00619229,9.09257456 0.109706672,8.9408164 0.0575111698,6.09338356 Z" id="path40220"></path>
                    <path d="M0.580775456,6.05278956 C0.558677369,4.81233904 1.39089717,2.89780704 2.08299174,1.68898778 C2.71368776,2.9099565 3.5083947,4.86890026 3.50328569,6.0340219 C3.49364917,8.27411217 0.619274186,8.16171286 0.580775456,6.05279629 L0.580775456,6.05278956 Z" id="path40222"></path>
                    <path d="M0.592612754,5.99454403 C0.805091251,5.80162369 1.326532,5.44047492 2.03047285,5.44047492 C2.73441145,5.44047492 3.13265536,5.69585829 3.44614502,5.96919186" id="path40224" stroke-linecap="round" stroke-linejoin="round"></path>
                    <path d="M1.09496246,3.91854553 C1.35794991,3.73830015 1.84789639,3.6339069 2.07196739,3.63703072 C2.31469826,3.64024213 2.78273305,3.80367366 2.98258824,3.93122049" id="path40226" stroke-linecap="round" stroke-linejoin="round"></path>
                </g>
                <g id="g40228" transform="translate(56.029677, 40.657851) scale(-1, 1) rotate(5.181019) translate(-56.029677, -40.657851) translate(54.008510, 36.503231)" stroke="#DA121A" stroke-width="0.5">
                    <path d="M0.0575111634,6.09338289 C0.0275462506,4.41854121 1.1557141,1.83357509 2.09392152,0.201445151 C2.94888833,1.84998247 4.0261969,4.4949121 4.01927312,6.06804195 C4.00619185,9.09257355 0.10970666,8.94081541 0.0575111634,6.09338289 Z" id="path40230"></path>
                    <path d="M0.580775391,6.05278888 C0.558677307,4.81233851 1.39089701,2.89780672 2.0829915,1.6889876 C2.71368746,2.90995618 3.50839432,4.86889972 3.5032853,6.03402123 C3.49364878,8.27411125 0.619274117,8.16171195 0.580775391,6.05279562 L0.580775391,6.05278888 Z" id="path40232"></path>
                    <path d="M0.592612689,5.99454336 C0.805091162,5.80162304 1.32653185,5.44047432 2.03047262,5.44047432 C2.73441115,5.44047432 3.13265501,5.69585766 3.44614464,5.9691912" id="path40234" stroke-linecap="round" stroke-linejoin="round"></path>
                    <path d="M1.09496234,3.9185451 C1.35794976,3.73829973 1.84789618,3.6339065 2.07196716,3.63703032 C2.31469801,3.64024173 2.78273274,3.80367323 2.98258791,3.93122005" id="path40236" stroke-linecap="round" stroke-linejoin="round"></path>
                </g>
                <g id="g40238" transform="translate(20.802162, 33.520518) scale(-1, 1) rotate(-35.735169) translate(-20.802162, -33.520518) translate(18.780995, 29.365898)" stroke="#DA121A" stroke-width="0.5">
                    <path d="M0.0575111796,6.0933846 C0.0275462583,4.41854245 1.15571443,1.83357561 2.09392211,0.201445208 C2.94888916,1.84998299 4.02619803,4.49491336 4.01927425,6.06804366 C4.00619297,9.09257611 0.10970669,8.94081792 0.0575111796,6.0933846 Z" id="path40240"></path>
                    <path d="M0.580775554,6.05279058 C0.558677464,4.81233986 1.3908974,2.89780753 2.08299209,1.68898807 C2.71368822,2.90995699 3.5083953,4.86890109 3.50328628,6.03402293 C3.49364976,8.27411358 0.619274291,8.16171424 0.580775554,6.05279732 L0.580775554,6.05279058 Z" id="path40242"></path>
                    <path d="M0.592612855,5.99454505 C0.805091388,5.80162467 1.32653222,5.44047584 2.03047319,5.44047584 C2.73441192,5.44047584 3.13265589,5.69585926 3.44614561,5.96919288" id="path40244" stroke-linecap="round" stroke-linejoin="round"></path>
                    <path d="M1.09496264,3.9185462 C1.35795014,3.73830078 1.8478967,3.63390751 2.07196775,3.63703134 C2.31469866,3.64024275 2.78273352,3.8036743 2.98258875,3.93122116" id="path40246" stroke-linecap="round" stroke-linejoin="round"></path>
                </g>
                <g id="g40248" transform="translate(24.743054, 35.788072) scale(-1, 1) rotate(-30.769040) translate(-24.743054, -35.788072) translate(22.721887, 31.633451)" stroke="#DA121A" stroke-width="0.5">
                    <path d="M0.0575111827,6.09338493 C0.0275462598,4.41854269 1.15571449,1.83357571 2.09392222,0.201445218 C2.94888932,1.84998309 4.02619825,4.4949136 4.01927447,6.06804399 C4.00619319,9.0925766 0.109706696,8.9408184 0.0575111827,6.09338493 Z" id="path40250"></path>
                    <path d="M0.580775586,6.05279091 C0.558677494,4.81234012 1.39089748,2.89780769 2.0829922,1.68898816 C2.71368837,2.90995715 3.50839549,4.86890135 3.50328647,6.03402325 C3.49364995,8.27411403 0.619274325,8.16171469 0.580775586,6.05279765 L0.580775586,6.05279091 Z" id="path40252"></path>
                    <path d="M0.592612887,5.99454537 C0.805091431,5.80162499 1.32653229,5.44047614 2.0304733,5.44047614 C2.73441206,5.44047614 3.13265606,5.69585957 3.44614579,5.9691932" id="path40254" stroke-linecap="round" stroke-linejoin="round"></path>
                    <path d="M1.0949627,3.91854641 C1.35795021,3.73830099 1.8478968,3.63390771 2.07196786,3.63703154 C2.31469878,3.64024295 2.78273367,3.80367451 2.98258891,3.93122137" id="path40256" stroke-linecap="round" stroke-linejoin="round"></path>
                </g>
                <g id="g40258" transform="translate(17.194619, 30.845219) scale(-1, 1) rotate(-70.201275) translate(-17.194619, -30.845219) translate(13.376859, 26.129163)" stroke="#DA121A" stroke-width="0.5">
                    <g id="g43287" transform="translate(3.851926, 4.658729) rotate(25.817840) translate(-3.851926, -4.658729) translate(1.830759, 0.504108)">
                        <path d="M0.0575111783,6.09338446 C0.0275462577,4.41854235 1.1557144,1.83357557 2.09392206,0.201445203 C2.94888909,1.84998295 4.02619794,4.49491326 4.01927416,6.06804352 C4.00619288,9.0925759 0.109706688,8.94081771 0.0575111783,6.09338446 Z" id="path40260"></path>
                        <path d="M0.580775541,6.05279045 C0.558677451,4.81233975 1.39089737,2.89780747 2.08299204,1.68898803 C2.71368816,2.90995693 3.50839522,4.86890098 3.5032862,6.03402279 C3.49364969,8.27411339 0.619274277,8.16171406 0.580775541,6.05279718 L0.580775541,6.05279045 Z" id="path40262"></path>
                        <path d="M0.592612841,5.99454491 C0.805091369,5.80162454 1.32653219,5.44047572 2.03047315,5.44047572 C2.73441185,5.44047572 3.13265582,5.69585913 3.44614553,5.96919274" id="path40264" stroke-linecap="round" stroke-linejoin="round"></path>
                        <path d="M1.09496262,3.91854611 C1.35795011,3.7383007 1.84789666,3.63390743 2.0719677,3.63703126 C2.3146986,3.64024267 2.78273346,3.80367421 2.98258868,3.93122107" id="path40266" stroke-linecap="round" stroke-linejoin="round"></path>
                    </g>
                </g>
                <g id="g40298" transform="translate(11.170471, 24.127864) scale(-1, 1) rotate(-60.214599) translate(-11.170471, -24.127864) translate(9.149304, 19.973243)" stroke="#DA121A" stroke-width="0.5">
                    <path d="M0.0575111799,6.09338463 C0.0275462585,4.41854248 1.15571444,1.83357562 2.09392212,0.201445209 C2.94888918,1.849983 4.02619806,4.49491339 4.01927428,6.06804369 C4.006193,9.09257616 0.109706691,8.94081797 0.0575111799,6.09338463 Z" id="path40300"></path>
                    <path d="M0.580775558,6.05279062 C0.558677467,4.81233989 1.39089741,2.89780755 2.0829921,1.68898808 C2.71368823,2.90995701 3.50839532,4.86890112 3.5032863,6.03402296 C3.49364979,8.27411363 0.619274295,8.16171429 0.580775558,6.05279736 L0.580775558,6.05279062 Z" id="path40302"></path>
                    <path d="M0.592612859,5.99454508 C0.805091393,5.80162471 1.32653223,5.44047588 2.0304732,5.44047588 C2.73441193,5.44047588 3.13265591,5.69585929 3.44614563,5.96919291" id="path40304" stroke-linecap="round" stroke-linejoin="round"></path>
                    <path d="M1.09496265,3.91854622 C1.35795014,3.7383008 1.84789671,3.63390754 2.07196776,3.63703136 C2.31469867,3.64024277 2.78273354,3.80367432 2.98258876,3.93122118" id="path40306" stroke-linecap="round" stroke-linejoin="round"></path>
                </g>
                <g id="g40308" transform="translate(13.961309, 27.676408) scale(-1, 1) rotate(-51.812109) translate(-13.961309, -27.676408) translate(11.940142, 23.521788)" stroke="#DA121A" stroke-width="0.5">
                    <path d="M0.0575111822,6.09338488 C0.0275462596,4.41854265 1.15571448,1.83357569 2.09392221,0.201445217 C2.94888929,1.84998308 4.02619822,4.49491357 4.01927444,6.06804394 C4.00619316,9.09257653 0.109706695,8.94081833 0.0575111822,6.09338488 Z" id="path40310"></path>
                    <path d="M0.580775581,6.05279086 C0.55867749,4.81234008 1.39089747,2.89780767 2.08299219,1.68898815 C2.71368834,2.90995713 3.50839546,4.86890132 3.50328644,6.03402321 C3.49364993,8.27411396 0.61927432,8.16171462 0.580775581,6.0527976 L0.580775581,6.05279086 Z" id="path40312"></path>
                    <path d="M0.592612882,5.99454532 C0.805091425,5.80162494 1.32653228,5.4404761 2.03047329,5.4404761 C2.73441204,5.4404761 3.13265604,5.69585952 3.44614577,5.96919315" id="path40314" stroke-linecap="round" stroke-linejoin="round"></path>
                    <path d="M1.0949627,3.91854638 C1.3579502,3.73830096 1.84789678,3.63390768 2.07196784,3.63703151 C2.31469876,3.64024292 2.78273365,3.80367448 2.98258888,3.93122134" id="path40316" stroke-linecap="round" stroke-linejoin="round"></path>
                </g>
                <g id="g40318" transform="translate(8.774213, 20.250331) scale(-1, 1) rotate(-62.713969) translate(-8.774213, -20.250331) translate(6.753046, 16.095710)" stroke="#DA121A" stroke-width="0.5">
                    <path d="M0.0575111794,6.09338458 C0.0275462582,4.41854243 1.15571442,1.8335756 2.0939221,0.201445207 C2.94888915,1.84998299 4.02619802,4.49491334 4.01927424,6.06804363 C4.00619296,9.09257607 0.10970669,8.94081789 0.0575111794,6.09338458 Z" id="path40320"></path>
                    <path d="M0.580775552,6.05279056 C0.558677462,4.81233984 1.3908974,2.89780752 2.08299208,1.68898806 C2.71368821,2.90995698 3.50839529,4.86890107 3.50328627,6.03402291 C3.49364975,8.27411355 0.619274289,8.16171421 0.580775552,6.0527973 L0.580775552,6.05279056 Z" id="path40322"></path>
                    <path d="M0.592612853,5.99454503 C0.805091385,5.80162465 1.32653222,5.44047582 2.03047318,5.44047582 C2.73441191,5.44047582 3.13265588,5.69585924 3.44614559,5.96919286" id="path40324" stroke-linecap="round" stroke-linejoin="round"></path>
                    <path d="M1.09496264,3.91854618 C1.35795013,3.73830077 1.84789669,3.6339075 2.07196774,3.63703133 C2.31469865,3.64024274 2.78273351,3.80367429 2.98258874,3.93122114" id="path40326" stroke-linecap="round" stroke-linejoin="round"></path>
                </g>
                <g id="g40328" transform="translate(5.528102, 11.761678) scale(-1, 1) rotate(-72.805100) translate(-5.528102, -11.761678) translate(3.506935, 7.607058)" stroke="#DA121A" stroke-width="0.5">
                    <path d="M0.0575111786,6.0933845 C0.0275462578,4.41854238 1.15571441,1.83357558 2.09392208,0.201445204 C2.94888911,1.84998296 4.02619797,4.49491329 4.01927419,6.06804356 C4.00619291,9.09257596 0.109706689,8.94081777 0.0575111786,6.0933845 Z" id="path40330"></path>
                    <path d="M0.580775545,6.05279048 C0.558677454,4.81233978 1.39089738,2.89780749 2.08299205,1.68898804 C2.71368817,2.90995695 3.50839524,4.86890101 3.50328622,6.03402283 C3.49364971,8.27411344 0.619274281,8.16171411 0.580775545,6.05279722 L0.580775545,6.05279048 Z" id="path40332"></path>
                    <path d="M0.592612845,5.99454495 C0.805091374,5.80162458 1.3265322,5.44047575 2.03047316,5.44047575 C2.73441187,5.44047575 3.13265584,5.69585916 3.44614555,5.96919278" id="path40334" stroke-linecap="round" stroke-linejoin="round"></path>
                    <path d="M1.09496263,3.91854613 C1.35795011,3.73830072 1.84789667,3.63390746 2.07196771,3.63703128 C2.31469862,3.64024269 2.78273348,3.80367424 2.9825887,3.93122109" id="path40336" stroke-linecap="round" stroke-linejoin="round"></path>
                </g>
                <g id="g40338" transform="translate(6.860822, 16.006740) scale(-1, 1) rotate(-68.220713) translate(-6.860822, -16.006740) translate(4.839655, 11.852119)" stroke="#DA121A" stroke-width="0.5">
                    <path d="M0.0575111799,6.09338463 C0.0275462585,4.41854247 1.15571443,1.83357562 2.09392212,0.201445209 C2.94888917,1.849983 4.02619806,4.49491339 4.01927428,6.06804369 C4.006193,9.09257616 0.109706691,8.94081797 0.0575111799,6.09338463 Z" id="path40340"></path>
                    <path d="M0.580775558,6.05279062 C0.558677467,4.81233989 1.39089741,2.89780755 2.0829921,1.68898808 C2.71368823,2.90995701 3.50839532,4.86890112 3.5032863,6.03402296 C3.49364979,8.27411362 0.619274295,8.16171429 0.580775558,6.05279736 L0.580775558,6.05279062 Z" id="path40342"></path>
                    <path d="M0.592612858,5.99454508 C0.805091392,5.80162471 1.32653223,5.44047587 2.0304732,5.44047587 C2.73441193,5.44047587 3.13265591,5.69585929 3.44614563,5.96919291" id="path40344" stroke-linecap="round" stroke-linejoin="round"></path>
                    <path d="M1.09496265,3.91854622 C1.35795014,3.7383008 1.84789671,3.63390754 2.07196776,3.63703136 C2.31469867,3.64024277 2.78273354,3.80367432 2.98258876,3.93122118" id="path40346" stroke-linecap="round" stroke-linejoin="round"></path>
                </g>
                <path d="M93.8934332,12.1347533 L67.1071864,4.33989887 L27.9416702,0.147354755 L0.157896594,10.5601574 C5.15472845,33.5226271 23.2270531,44.7632644 45.2896529,45.533772 C66.1860144,46.2610309 76.0162166,41.0172617 82.9334272,33.8559172 C89.508343,27.0489402 92.6672199,18.5122049 93.8934332,12.1347533 L93.8934332,12.1347533 Z" id="path5453" stroke="#000000" stroke-width="0.5" stroke-linecap="round" stroke-linejoin="round"></path>
            </g>
            <path d="M165.88639,183.77086 C156.17893,177.88401 159.05358,175.22178 154.17533,158.16692 C149.52331,158.23642 142.73651,157.63763 140.37982,156.57403 C138.52206,155.73559 137.92937,154.72115 137.33989,152.60669 C137.0057,151.40801 137.35739,149.49108 137.86559,147.42134 C137.21149,146.50519 136.08667,146.23832 135.169,145.6869 C134.34871,144.60384 134.89617,143.47127 135.01793,142.98635 C134.44065,142.32553 133.78808,141.28031 134.18685,140.38799 C134.8513,139.28566 135.10449,138.19793 134.47614,137.14149 C132.01905,136.9067 127.53663,135.39393 129.90579,129.94731 C132.04152,125.03737 135.36886,119.57642 138.20598,114.32556 L141.50963,103.77297 C147.26419,103.79297 174.92383,103.58545 174.94632,113.63296 L179.4022,114.63212 L183.43505,117.65778 L183.40015,117.77748 L187.30011,117.47749 C185.18966,124.96975 182.99559,127.23349 179.48516,186.42496 C176.91787,186.6888 171.01472,186.39266 165.88642,183.77086 L165.88639,183.77086 Z" id="path2239" stroke="#00FF00" stroke-width="0.5" fill="#000000"></path>
            <path d="M141.88004,108.14085 C145.16995,106.31078 148.43992,105.83121 151.79256,106.02242 C153.54229,106.12222 155.76396,106.57501 157.60143,107.842 C164.87744,112.85899 164.88353,112.26624 167.63633,113.19101 C167.7651,113.38428 167.95526,113.58302 167.64823,113.73745 C166.24247,113.62042 164.27837,113.00819 162.26839,112.2279 C160.39395,111.50023 158.34533,109.74151 155.42598,108.77009 C153.2738,108.05395 150.83372,107.97232 148.52288,108.03376 C146.38671,108.09056 144.24207,108.88377 141.77152,109.67427 C141.20701,109.8549 139.69488,109.35637 141.88005,108.14085 L141.88004,108.14085 Z" id="path2241" stroke="#000000" stroke-width="0.20450108" fill="#000000"></path>
            <path d="M148.50857,112.27433 C152.04393,111.92547 157.40827,112.4872 160.26268,113.65501 C162.31279,114.49377 164.36154,114.14183 166.93234,114.68912 C167.41363,114.79158 167.42646,115.58141 166.93534,115.61308 C164.52416,115.76874 161.81799,115.36026 159.73936,116.12322 C157.20308,117.05415 154.45408,118.20322 152.71125,118.82982 C151.0289,119.43467 148.82513,119.85304 145.30693,118.95779 C144.14796,118.66288 143.11895,118.54616 141.88535,119.07404 C138.80804,120.39089 138.8312,118.16317 140.60802,116.26667 C143.52893,113.14942 146.19461,112.50266 148.50857,112.27433 Z" id="path2243" stroke="#000000" stroke-width="0.20450108" fill="#000000"></path>
            <path d="M134.21618,140.49691 C138.99844,140.06549 140.4344,142.23061 144.70702,142.17845" id="path2249" stroke="#000000" stroke-width="0.1049984" stroke-linecap="round" stroke-linejoin="round"></path>
            <path d="M135.24206,145.6935 C140.5604,145.86007 141.87412,143.46454 144.96149,142.76379" id="path2251" stroke="#000000" stroke-width="0.1049984" stroke-linecap="round" stroke-linejoin="round"></path>
            <path d="M134.98431,143.03786 C136.73505,143.40899 141.28434,143.10016 142.9018,142.87221" id="path2253" stroke="#000000" stroke-width="0.2099968" stroke-linecap="round" stroke-linejoin="round"></path>
            <path d="M144.97411,114.95791 C144.94591,115.96732 145.43113,116.72812 146.26773,117.22921 C145.22858,117.22221 142.55671,117.02578 141.9944,117.28842 C142.77406,115.85836 143.94347,115.62035 144.97411,114.95791 Z" id="path2245" stroke="#000000" stroke-width="0.2099968" fill="#FFFFFF"></path>
            <path d="M154.13302,113.95925 C154.11662,115.22091 153.93715,116.4308 152.90508,117.36987 C154.69934,117.07895 156.47414,115.63896 157.93089,114.29767 C156.67175,114.56758 155.50541,114.15573 154.13302,113.95925 L154.13302,113.95925 Z" id="path2247" stroke="#000000" stroke-width="0.2099968" fill="#FFFFFF"></path>
            <path d="M136.71907,131.53289 C140.47928,134.57807 138.4589,136.46269 136.68197,136.38475 C134.92362,136.30685 132.38508,133.3207 131.75276,134.99586 C131.1143,136.68722 134.60287,136.08519 134.55092,135.60697" id="path4483" stroke="#000000" stroke-width="0.08352648"></path>
            <path d="M184.88856,127.26261 C181.2684,129.49431 176.85448,151.57356 176.72855,165.00735 C174.95363,190.17784 174.54972,215.62406 172.54995,240.77708 L196.92667,241.74193 L198.9263,174.50772" id="path7550" stroke="#00FFFF" stroke-width="0.5" fill="#008080" stroke-linecap="round" stroke-linejoin="round"></path>
            <path d="M162.17335,646.68592 L189.591,646.68592 C195.57746,608.85628 193.38631,566.78409 190.59862,533.40915 C196.19294,482.27483 202.3723,425.57189 204.59913,373.67616 C232.01293,355.51578 196.64504,306.30059 199.50803,297.73405 C201.74752,282.54021 206.84324,269.53149 213.05205,255.92537 L123.92115,255.92537 C125.34962,260.26795 131.30506,265.17595 133.70209,267.1752 C143.51495,274.03835 141.38928,282.23735 140.30198,289.97485 C129.07725,369.85285 118.88585,404.65752 142.10194,518.57137 C140.2449,532.14541 143.30193,542.771 143.90193,554.87081 C140.72174,585.47034 138.31188,616.06988 138.50201,646.66942 L162.17335,646.68592 L162.17335,646.68592 Z" id="path9516" stroke="#000000" stroke-width="0.41999361" fill="#00FFFF" stroke-linecap="round" stroke-linejoin="round"></path>
            <g id="g22227" transform="translate(124.481004, 256.239301)">
                <path d="M87.7644876,0.196307109 L84.6675808,7.26283593 L5.65141288,7.26283593 C3.52899622,5.11763672 1.32923774,2.56228856 0.140088865,0.196307109 L87.7644876,0.196307109 Z" id="path14411" stroke="#00FFFF" stroke-width="0.6299904" fill="#00FF00"></path>
                <line x1="0.471127821" y1="1.31375048" x2="87.6584182" y2="1.31375048" id="path16356" stroke="#000000" stroke-width="0.5" stroke-linecap="round" stroke-linejoin="round"></line>
                <line x1="5.65542382" y1="7.408685" x2="84.8916474" y2="7.408685" id="path17327" stroke="#000000" stroke-width="0.5" stroke-linecap="round" stroke-linejoin="round"></line>
                <line x1="3.83947649" y1="5.76091781" x2="85.6625036" y2="5.76091781" id="path17329" stroke="#000000" stroke-width="0.5" stroke-linecap="round" stroke-linejoin="round"></line>
                <g id="g22182" transform="translate(5.138450, 1.469978)" stroke="#000000" stroke-linecap="round" stroke-linejoin="round" stroke-width="0.5">
                    <line x1="0.134439951" y1="0.0357813548" x2="0.134439951" y2="4.06245949" id="path21207"></line>
                    <line x1="2.03027006" y1="0.0357813548" x2="2.03027006" y2="4.06245949" id="path22178"></line>
                    <line x1="4.03859546" y1="0.0357813548" x2="4.03859546" y2="4.06245949" id="path22180"></line>
                </g>
                <g id="g22187" transform="translate(19.884903, 1.469978)" stroke="#000000" stroke-linecap="round" stroke-linejoin="round" stroke-width="0.5">
                    <line x1="0.134439951" y1="0.0357813548" x2="0.134439951" y2="4.06245949" id="path22189"></line>
                    <line x1="2.03027006" y1="0.0357813548" x2="2.03027006" y2="4.06245949" id="path22191"></line>
                    <line x1="4.03859546" y1="0.0357813548" x2="4.03859546" y2="4.06245949" id="path22193"></line>
                </g>
                <g id="g22195" transform="translate(34.060868, 1.469978)" stroke="#000000" stroke-linecap="round" stroke-linejoin="round" stroke-width="0.5">
                    <line x1="0.134439951" y1="0.0357813548" x2="0.134439951" y2="4.06245949" id="path22197"></line>
                    <line x1="2.03027006" y1="0.0357813548" x2="2.03027006" y2="4.06245949" id="path22199"></line>
                    <line x1="4.03859546" y1="0.0357813548" x2="4.03859546" y2="4.06245949" id="path22201"></line>
                </g>
                <g id="g22203" transform="translate(48.536182, 1.469978)" stroke="#000000" stroke-linecap="round" stroke-linejoin="round" stroke-width="0.5">
                    <line x1="0.134439951" y1="0.0357813548" x2="0.134439951" y2="4.06245949" id="path22205"></line>
                    <line x1="2.03027006" y1="0.0357813548" x2="2.03027006" y2="4.06245949" id="path22207"></line>
                    <line x1="4.03859546" y1="0.0357813548" x2="4.03859546" y2="4.06245949" id="path22209"></line>
                </g>
                <g id="g22211" transform="translate(63.849997, 1.469978)" stroke="#000000" stroke-linecap="round" stroke-linejoin="round" stroke-width="0.5">
                    <line x1="0.134439951" y1="0.0357813548" x2="0.134439951" y2="4.06245949" id="path22213"></line>
                    <line x1="2.03027006" y1="0.0357813548" x2="2.03027006" y2="4.06245949" id="path22215"></line>
                    <line x1="4.03859546" y1="0.0357813548" x2="4.03859546" y2="4.06245949" id="path22217"></line>
                </g>
                <g id="g22219" transform="translate(77.426240, 1.469978)" stroke="#000000" stroke-linecap="round" stroke-linejoin="round" stroke-width="0.5">
                    <line x1="0.134439951" y1="0.0357813548" x2="0.134439951" y2="4.06245949" id="path22221"></line>
                    <line x1="2.03027006" y1="0.0357813548" x2="2.03027006" y2="4.06245949" id="path22223"></line>
                    <line x1="4.03859546" y1="0.0357813548" x2="4.03859546" y2="4.06245949" id="path22225"></line>
                </g>
            </g>
            <polygon id="path22259" stroke="#FF00FF" stroke-width="0.6299904" fill="#FF00FF" points="190.09367 639.46896 189.11871 646.46505 138.96595 646.30595 139.02815 639.45153 190.09371 639.46893"></polygon>
            <line x1="138.4758" y1="640.51596" x2="190.30956" y2="640.51596" id="path22261" stroke="#000000" stroke-width="0.41999361" stroke-linecap="round" stroke-linejoin="round"></line>
            <line x1="138.77204" y1="646.61089" x2="189.49278" y2="646.61089" id="path22263" stroke="#000000" stroke-width="0.41999361" stroke-linecap="round" stroke-linejoin="round"></line>
            <line x1="138.4758" y1="644.96313" x2="189.47615" y2="644.96313" id="path22265" stroke="#000000" stroke-width="0.41999361" stroke-linecap="round" stroke-linejoin="round"></line>
            <g id="g22275" transform="translate(141.482834, 640.672178)" stroke="#000000" stroke-linecap="round" stroke-linejoin="round" stroke-width="0.5">
                <line x1="0.134439951" y1="0.0357813548" x2="0.134439951" y2="4.06245949" id="path22277"></line>
                <line x1="2.03027006" y1="0.0357813548" x2="2.03027006" y2="4.06245949" id="path22279"></line>
                <line x1="4.03859546" y1="0.0357813548" x2="4.03859546" y2="4.06245949" id="path22281"></line>
            </g>
            <g id="g22283" transform="translate(154.279974, 640.672178)" stroke="#000000" stroke-linecap="round" stroke-linejoin="round" stroke-width="0.5">
                <line x1="0.134439951" y1="0.0357813548" x2="0.134439951" y2="4.06245949" id="path22285"></line>
                <line x1="2.03027006" y1="0.0357813548" x2="2.03027006" y2="4.06245949" id="path22287"></line>
                <line x1="4.03859546" y1="0.0357813548" x2="4.03859546" y2="4.06245949" id="path22289"></line>
            </g>
            <g id="g22291" transform="translate(168.437094, 640.672178)" stroke="#000000" stroke-linecap="round" stroke-linejoin="round" stroke-width="0.5">
                <line x1="0.134439951" y1="0.0357813548" x2="0.134439951" y2="4.06245949" id="path22293"></line>
                <line x1="2.03027006" y1="0.0357813548" x2="2.03027006" y2="4.06245949" id="path22295"></line>
                <line x1="4.03859546" y1="0.0357813548" x2="4.03859546" y2="4.06245949" id="path22297"></line>
            </g>
            <g id="g22299" transform="translate(182.372064, 640.672178)" stroke="#000000" stroke-linecap="round" stroke-linejoin="round" stroke-width="0.5">
                <line x1="0.134439951" y1="0.0357813548" x2="0.134439951" y2="4.06245949" id="path22301"></line>
                <line x1="2.03027006" y1="0.0357813548" x2="2.03027006" y2="4.06245949" id="path22303"></line>
                <line x1="4.03859546" y1="0.0357813548" x2="4.03859546" y2="4.06245949" id="path22305"></line>
            </g>
            <line x1="138.55991" y1="639.10684" x2="190.51811" y2="639.10684" id="path22343" stroke="#000000" stroke-width="0.41999361" stroke-linecap="round" stroke-linejoin="round"></line>
            <g id="g22349" transform="translate(120.573154, 180.411267)" stroke="#000000" stroke-linecap="round" stroke-linejoin="round" stroke-width="0.5">
                <polygon id="path22345" fill="#FF00FF" points="0.185616172 2.67551232 12.6120718 75.5549104 25.1058104 75.5549104 6.82300603 0.163050755"></polygon>
                <polygon id="path22347" fill="#00FFFF" points="1.34731847 2.22928823 14.5245547 75.5549104 23.3058439 75.5549104 5.46504072 0.658081042"></polygon>
            </g>
            <g id="g22355" transform="translate(199.926328, 181.270443)" stroke="#000000" stroke-linecap="round" stroke-linejoin="round" stroke-width="0.5">
                <polygon id="path9524" fill="#FF00FF" points="22.5929887 0.0831795225 0.0148047744 74.654925 10.5146658 74.654925 28.5414211 2.06044471"></polygon>
                <polygon id="path22353" fill="#00FFFF" points="23.7767827 0.473706582 1.92396968 74.654925 8.60550087 74.654925 27.2600206 1.58205121"></polygon>
            </g>
            <g id="g31779" transform="translate(108.176580, 232.521498) rotate(7.981526) translate(-108.176580, -232.521498) translate(93.676580, 224.021498)" stroke="#000000" stroke-linecap="round" stroke-linejoin="round" stroke-width="0.5">
                <polygon id="path31781" fill="#FDE642" points="1.75872288 0.032362601 28.5184842 1.63456439 27.6296309 16.4602434 0.0632090253 15.0350542"></polygon>
                <polygon id="path31783" fill="#000000" points="1.55601301 1.74783035 28.4421084 3.49885265 28.1360171 8.38046467 0.99996258 6.60112011 1.55601301 1.74783035"></polygon>
                <polygon id="path13387" fill="#000000" points="0.871465562 8.32347575 28.0011992 10.1918001 27.6478587 14.736548 0.315415136 13.1767655"></polygon>
            </g>
            <g id="g31791" transform="translate(34.032433, 397.543315) rotate(44.542679) translate(-34.032433, -397.543315) translate(25.107570, 390.928417)" stroke="#000000" stroke-linecap="round" stroke-linejoin="round" stroke-width="0.5">
                <polygon id="path31793" fill="#FDE642" points="0.00237296334 2.14097362 16.767737 0.110130699 17.7039655 13.0523862 2.52886493 13.0937534 0.00237296334 2.14097362"></polygon>
                <polygon id="path31795" fill="#000000" points="0.341034731 3.61417016 16.7537722 1.94046032 17.0414887 5.77011026 1.16865295 6.89204942 0.341034731 3.61417016"></polygon>
                <polygon id="path13461" fill="#000000" points="1.42707495 8.49791982 17.2526825 7.29682867 17.540378 11.1264786 2.25469317 11.7757991 1.42707495 8.49791982"></polygon>
            </g>
            <g id="g31797" transform="translate(172.453009, 228.048563)" fill="#FDE642" stroke="#DA121A" stroke-linecap="round" stroke-linejoin="round" stroke-width="0.5">
                <polygon id="path31799" points="0.910756122 0.107197066 24.8813448 1.220871 24.4040431 13.6304072 0.0622430515 13.1000855 0.910756122 0.107197066"></polygon>
            </g>
            <g id="g4004" transform="translate(204.753851, 51.688443) scale(-1, 1) rotate(1.781379) translate(-204.753851, -51.688443) translate(178.753851, 1.188443)">
                <g id="g10075" transform="translate(0.000000, 0.000000)">
                    <path d="M45.3064773,77.9092028 L33.2879802,24.4184302 C30.8473723,16.4193502 28.3394893,1.90781946 13.5674914,0.973899368 C9.05008231,0.688297581 -1.82383455,5.68896056 1.71401833,15.634927 C2.34611269,17.4119358 4.73978815,21.4014904 10.7744616,19.1709195 C12.1933846,18.9030086 13.8558303,21.6785798 13.8796093,25.5411866 C13.9400309,35.3550911 13.4838501,51.6109196 13.8214036,63.3515881 C13.9073958,66.3425188 15.4999051,67.8137016 17.5454433,67.7527278 C37.1473237,67.1684403 41.5854686,71.0047941 44.2908308,78.0784784" id="path4007" stroke="#00FF00" stroke-width="0.5" fill="#008080"></path>
                    <path d="M51.2310881,100.422724 L33.7958046,24.249157 C31.3551968,16.2500746 28.2743304,0.756608343 13.4828548,0.212165051 C7.40940828,-0.0135886873 -3.17471216,5.47999717 1.29508437,16.2932508 C2.65212357,19.5761747 6.14789039,20.7273195 10.2666371,19.2555561" id="path4201" stroke="#00FF00" stroke-width="3.31778203" stroke-linecap="round" stroke-linejoin="round"></path>
                    <path d="M51.2310881,100.422724 L33.7958046,24.249157 C31.3551968,16.2500746 28.2743304,0.756608343 13.4828548,0.212165051 C7.40940828,-0.0135886873 -3.17471216,5.47999717 1.29508437,16.2932508 C2.65212357,19.5761747 6.14789039,20.7273195 10.2666371,19.2555561" id="path4010" stroke="#FDE642" stroke-width="2.84381317" stroke-linecap="round" stroke-linejoin="round"></path>
                    <path d="M41.5584808,68.5038192 C38.7573723,62.4157863 22.4466368,63.2790945 15.293994,63.6092044" id="path6141" stroke-opacity="0.70588235" stroke="#FFFFFF" stroke-width="1.18492215" stroke-linecap="round" stroke-linejoin="round"></path>
                    <path d="M40.40417,61.9297668 C34.7703865,56.3586752 22.5448977,57.9451106 15.3922525,58.2752204" id="path8081" stroke-opacity="0.70588235" stroke="#FFFFFF" stroke-width="1.18492215" stroke-linecap="round" stroke-linejoin="round"></path>
                    <path d="M38.8198295,56.5525521 C33.5126817,52.2339896 22.140261,53.0308497 15.2371012,53.5371622" id="path8083" stroke-opacity="0.70588235" stroke="#FFFFFF" stroke-width="1.18492215" stroke-linecap="round" stroke-linejoin="round"></path>
                    <path d="M37.6611344,51.4586097 C32.3754052,48.636092 22.4116105,48.6359048 15.2589678,48.9660146" id="path8085" stroke-opacity="0.70588235" stroke="#FFFFFF" stroke-width="1.18492215" stroke-linecap="round" stroke-linejoin="round"></path>
                    <path d="M36.3616872,46.944554 C29.539595,44.6215354 22.3510278,44.4044458 15.1983851,44.7345557" id="path8087" stroke-opacity="0.70588235" stroke="#FFFFFF" stroke-width="1.18492215" stroke-linecap="round" stroke-linejoin="round"></path>
                    <path d="M35.5482002,42.6137891 C30.0892804,40.6315494 22.4626167,40.0013794 15.3099715,40.3314916" id="path8089" stroke-opacity="0.70588235" stroke="#FFFFFF" stroke-width="1.18492215" stroke-linecap="round" stroke-linejoin="round"></path>
                    <path d="M34.3436534,37.8898505 C30.307927,36.127876 22.307463,35.2633236 15.1548178,35.5934334" id="path8091" stroke-opacity="0.70588235" stroke="#FFFFFF" stroke-width="1.18492215" stroke-linecap="round" stroke-linejoin="round"></path>
                    <path d="M33.3238359,33.8714003 C29.8402501,31.8625804 22.3293295,30.6921759 15.1766844,31.0222858" id="path8093" stroke-opacity="0.70588235" stroke="#FFFFFF" stroke-width="1.18492215" stroke-linecap="round" stroke-linejoin="round"></path>
                    <path d="M31.8967157,29.0640502 C29.8826869,27.6126865 21.0031836,26.2887303 15.1221566,27.213972" id="path8095" stroke-opacity="0.70588235" stroke="#FFFFFF" stroke-width="1.18492215" stroke-linecap="round" stroke-linejoin="round"></path>
                    <path d="M30.9553637,25.4737835 C28.3018159,23.2869978 20.5963121,22.4284957 15.1069659,23.4194034" id="path8097" stroke-opacity="0.70588235" stroke="#FFFFFF" stroke-width="1.18492215" stroke-linecap="round" stroke-linejoin="round"></path>
                    <path d="M29.9003304,20.9157363 C26.0534877,18.5387043 17.0094059,18.1770992 13.6459403,19.4531443" id="path8099" stroke-opacity="0.70588235" stroke="#FFFFFF" stroke-width="1.18492215" stroke-linecap="round" stroke-linejoin="round"></path>
                    <path d="M27.9671014,16.1060165 C21.0881093,13.3485296 9.30057959,14.5001199 5.66617214,16.3401381" id="path8101" stroke-opacity="0.70588235" stroke="#FFFFFF" stroke-width="1.18492215" stroke-linecap="round" stroke-linejoin="round"></path>
                    <path d="M25.8844917,11.029317 C18.1324395,9.11820585 8.52756955,9.33878622 2.79780975,12.9561877" id="path8103" stroke-opacity="0.70588235" stroke="#FFFFFF" stroke-width="1.18492215" stroke-linecap="round" stroke-linejoin="round"></path>
                    <path d="M20.5349403,5.20423972 C16.1878282,3.63167502 5.5352809,5.62963862 3.73430587,7.63893244" id="path8105" stroke-opacity="0.70588235" stroke="#FFFFFF" stroke-width="1.18492215" stroke-linecap="round" stroke-linejoin="round"></path>
                </g>
            </g>
            <path d="M225.26988,93.35922 L203.86947,151.9186 L194.85075,148.08235 L220.98409,90.59401 C203.21884,96.42486 167.59797,93.94459 144.08572,92.27495 C144.73459,90.51248 146.5944,86.93101 146.78191,86.93101 C181.5403,90.71626 214.37592,87.85018 220.31379,85.73558" id="path8368" stroke="#00FFFF" stroke-width="0.5" fill="#00FFFF" stroke-linecap="round" stroke-linejoin="round"></path>
            <path d="M221.57591,85.91099 C221.88857,85.65862 221.98743,85.44188 222.00142,85.23929 C224.38052,76.30411 229.48249,76.54848 231.3095,77.9837 C236.19971,82.25103 231.15488,84.32493 226.93916,90.07028 L255.7709,149.15696 L248.16209,152.41252 L224.6699,93.35922 L202.81949,151.3936 L195.82574,148.45734 L222.43417,89.2114 C206.70413,95.90997 168.38145,93.3968 144.3,91.5791 C145.10796,89.81663 146.02416,87.91211 146.23819,87.67346 C180.99656,91.45871 215.63804,88.02559 221.57591,85.91099 Z" id="path31807" fill="#FF00FF"></path>
            <path d="M226.53954,88.32713 C225.52131,85.76284 226.72466,83.59164 228.2258,82.73331" id="path2527" stroke="#000000" stroke-width="0.2099968"></path>
            <path d="M221.94195,85.24306 C224.64111,76.2947 229.36999,76.54848 231.197,77.9837 C236.08721,82.25103 231.04238,84.32493 226.82666,90.07028 L255.6584,149.15696 L248.04959,152.41252 C248.04959,152.41252 240.489123,133.151658 233.462797,115.494897 C230.063926,106.953726 226.790043,98.7879115 224.5574,93.35922 C222.58002,88.55119 221.42083,86.9707 221.94195,85.24306 Z" id="path8376" stroke="#00FFFF" stroke-width="0.5" stroke-linecap="round" stroke-linejoin="round"></path>
            <path d="M134.76751,135.62038 C133.44594,134.83611 132.17481,133.87784 131.7528,134.99586 C131.11434,136.68722 134.60291,136.08519 134.55096,135.60697" id="path9347" stroke="#000000" stroke-width="0.08352648" fill="#000000"></path>
            <g id="g13233" transform="translate(176.050234, 106.226586)" stroke="#00FF00" stroke-width="0.5">
                <path d="M7.13840022,13.2470349 C3.4844727,10.964838 3.32799149,7.36003715 4.50679802,5.37723476 C7.33272916,0.623881593 9.55690187,-0.240912529 11.6837327,0.320583215 C15.7954322,1.40609657 15.3075025,6.50288061 14.4403292,10.8678237 C13.598473,15.1053869 10.3001225,17.9929941 8.51938328,21.5507767 C7.41090887,23.7654009 6.90663305,25.2950469 6.17230364,26.1288413 C5.3220161,27.0943184 3.83466757,28.5006817 1.74304904,27.5520842 C-0.563266017,26.5061195 -0.0607352745,23.6742895 1.07398663,20.0995539 C1.97386702,17.2646559 4.66739308,14.8800037 6.03599682,14.0577612" id="path2318" fill="#000000"></path>
                <path d="M4.25749192,21.0889454 C3.29196444,20.7874152 6.3326299,18.1452292 7.89986332,15.763834 C9.92172721,12.6916522 7.74582017,11.3085209 6.75073773,9.42599616 C5.11352498,6.32865466 7.77884216,1.59197944 10.6117431,2.31109458 C13.9838549,3.16708774 15.4473793,7.51189003 11.3155369,14.0440253 C9.45999885,16.9774958 6.37541465,21.750364 4.25749192,21.0889454 L4.25749192,21.0889454 Z" id="path12256"></path>
                <path d="M4.57494199,24.675695 C4.57494199,25.4626874 3.98732474,26.1006724 3.26246199,26.1006724 C2.53759923,26.1006724 1.94998199,25.4626874 1.94998199,24.675695 C1.94998199,23.8887005 2.53759923,23.2507155 3.26246199,23.2507155 C3.98732474,23.2507155 4.57494199,23.8887005 4.57494199,24.675695 Z" id="path12262" stroke-linecap="round" stroke-linejoin="round"></path>
            </g>
            <path d="M142.40971,157.16671 C154.5445,159.12976 159.95492,157.8299 164.41545,154.78936" id="path13238" stroke="#000000" stroke-width="0.1049984"></path>
            <path d="M155.25492,161.73319 C158.35874,161.59474 161.38752,160.33126 164.4048,159.03323" id="path13240" stroke="#000000" stroke-width="0.1049984"></path>
            <path d="M156.15493,165.5528 C160.25841,166.32699 162.91638,164.01481 165.90476,162.70284" id="path13242" stroke="#000000" stroke-width="0.1049984"></path>
            <g id="g13389" transform="translate(239.790558, 238.916631) rotate(-1.081910) translate(-239.790558, -238.916631) translate(225.615778, 230.516762)" stroke="#000000" stroke-linecap="round" stroke-linejoin="round" stroke-width="0.5">
                <polygon id="path13391" fill="#FDE642" points="1.54872594 0.0323625972 28.3084842 1.63456421 27.7917242 16.6172917 0.145233744 15.4595692"></polygon>
                <polygon id="path13393" fill="#000000" points="1.34601609 1.74783015 28.2321084 3.49885224 28.0759758 8.38329656 1.08990407 6.60678296"></polygon>
                <polygon id="path13395" fill="#000000" points="0.736458558 8.32489016 27.9411789 10.1946318 27.8113799 14.818613 0.24972812 13.4795373 0.736458558 8.32489016"></polygon>
            </g>
            <g id="g13413" transform="translate(148.483870, 662.245368) rotate(-2.623338) translate(-148.483870, -662.245368) translate(135.149074, 653.635500)" stroke="#000000" stroke-linecap="round" stroke-linejoin="round" stroke-width="0.5">
                <polygon id="path13415" fill="#FDE642" points="3.35633645 0.102776621 26.5590901 2.17616928 24.7721225 17.025625 0.169845391 14.4728874"></polygon>
                <polygon id="path13417" fill="#000000" points="3.02525554 1.63880223 26.3737679 3.96038797 25.9439045 8.15859519 1.98255855 6.25782199 3.02525554 1.63880223"></polygon>
                <polygon id="path13419" fill="#000000" points="1.63276692 8.31834814 25.6010008 10.5214768 25.1086214 14.8660749 0.56581531 12.9794113 1.63276692 8.31834814"></polygon>
            </g>
            <g id="g13429" transform="translate(176.808122, 663.899632) rotate(-5.248968) translate(-176.808122, -663.899632) translate(163.368327, 655.289763)" stroke="#000000" stroke-linecap="round" stroke-linejoin="round" stroke-width="0.5">
                <polygon id="path13431" fill="#FDE642" points="2.51013382 0.0057455126 26.7690908 2.1761696 25.246173 17.0498863 0.062978042 14.4437798 2.51013382 0.0057455126"></polygon>
                <polygon id="path13433" fill="#000000" points="2.23186705 1.54662227 26.5837686 3.96038856 26.1539052 8.1585964 1.55882729 6.1996034 2.23186705 1.54662227"></polygon>
                <polygon id="path13435" fill="#000000" points="1.15624241 8.25527893 25.8638156 10.5263293 25.3371226 15.2443506 0.300526429 12.9357486"></polygon>
            </g>
            <g id="g13453" transform="translate(228.819428, 393.547212)" stroke="#000000" stroke-linecap="round" stroke-linejoin="round" stroke-width="0.5">
                <g id="g31785" transform="translate(0.061970, 0.061483)">
                    <polygon id="path31787" fill="#FDE642" points="0.113146276 0.166624061 20.5305471 0.325719737 19.6820341 13.2125451 0.21921566 12.4700951"></polygon>
                    <polygon id="path31789" fill="#000000" points="0.113146276 2.02275218 20.3714536 2.28791094 20.1630947 6.26936417 0.166170468 5.95494016 0.113146276 2.02275218"></polygon>
                </g>
                <polygon id="path13439" fill="#FDE642" points="0.175116332 0.228106924 20.5925172 0.3872026 19.7440041 13.2740237 0.281185715 12.5315779"></polygon>
                <polygon id="path13441" fill="#000000" points="0.175116332 2.08423504 20.4334236 2.3493938 20.2250648 6.33084703 0.228140524 6.01642302 0.175116332 2.08423504"></polygon>
                <polygon id="path13451" fill="#000000" points="0.175116332 7.25915678 20.1152302 7.52431554 19.9068714 11.5057688 0.228140524 11.1913448"></polygon>
            </g>
            <g id="g15419" transform="translate(173.800266, 229.329714)" stroke="#DA121A" stroke-linecap="round" stroke-linejoin="round" stroke-width="0.6299904">
                <line x1="0.300003528" y1="0.196061412" x2="21.974672" y2="1.02104854" id="path13463"></line>
                <line x1="0.225005271" y1="2.1460308" x2="21.8996738" y2="2.97101793" id="path14434"></line>
                <line x1="0.225005271" y1="4.2459988" x2="21.8996738" y2="5.07098593" id="path15405"></line>
                <line x1="0.150007014" y1="6.19596818" x2="21.8246755" y2="7.02095531" id="path15407"></line>
                <line x1="0.225005271" y1="8.22094003" x2="21.8996738" y2="8.89592854" id="path15415"></line>
                <line x1="0.075008757" y1="10.3209059" x2="21.8246755" y2="10.8458979" id="path15417"></line>
            </g>
            <g id="g18413" transform="translate(17.338164, 414.206758) rotate(8.940398) translate(-17.338164, -414.206758) translate(6.838164, 402.706758)" stroke="#00FF00" stroke-linecap="round" stroke-linejoin="round" stroke-width="0.5">
                <path d="M9.50653176,1.70029326 C12.0678201,-0.52683984 15.2924881,-0.408132879 12.9487774,2.80601854 C15.0018946,0.601275287 19.498723,0.687025359 15.3112409,5.20596637 C19.2176213,2.5243919 19.6402398,5.7849274 17.6737043,7.75593587 C20.3064125,5.91325641 21.1987097,8.50587626 18.5736873,11.3558891 C16.0046081,14.980832 12.9623432,18.7118442 10.0283737,22.336787 C9.97383752,22.401865 9.8978817,22.4455654 9.77289163,22.4401894 C8.51402413,22.4922686 7.21080532,21.6827102 7.78420143,19.2715065 C5.77159261,19.7693878 4.28111969,18.2225308 5.34471122,16.3017115 C3.13634342,16.3931651 2.40874669,15.3455753 2.79917264,13.4379649 C0.421190476,13.5767097 -0.256931021,12.6845595 0.359682429,10.6272634 C0.447272072,10.4527351 0.534861716,10.3173082 0.622451359,10.2134858 C3.75868978,6.38215815 6.68732542,3.58876042 9.42383504,1.7560264 M10.0115319,1.34662724 C9.8523544,2.25854652 10.8249123,3.42951988 12.3449738,3.36185893 M12.9374166,2.93569153 C12.3920341,4.02838861 14.2618871,5.36132196 15.2261292,5.24639074 M15.4666594,5.08616322 C14.6371933,6.24807523 16.0928067,8.51276415 17.9557299,7.41427116 M17.6428557,7.80524311 C17.1956047,9.01211542 18.2158949,10.1675385 19.2868363,10.3583416 M5.35435007,16.2988136 C5.72934126,15.9988122 15.3358735,5.21883917 15.3358735,5.21883917 M2.89438517,13.3725509 C3.41937704,12.7725482 12.9889498,2.78783282 12.9889498,2.78783282 M7.83010672,19.2495199 L17.7449352,7.69379783" id="path17387" fill="#000000"></path>
                <path d="M12.9373956,2.93569153 C12.7668363,3.06935446 12.7524305,3.31593264 12.3449528,3.36185893 C10.4941885,3.47704215 9.94534096,1.67473666 9.99563518,1.3432148 C12.4346634,-0.46099746 15.173882,-0.147016623 12.9818939,2.85904272 C15.0350111,0.654307866 19.498702,0.687025359 15.3112199,5.20594537 C19.2176003,2.5243919 19.6866281,5.69872374 17.7200925,7.66973221 C20.0597923,6.03213557 20.9785071,7.98369834 19.30435,10.3889591 C18.2158739,10.1675175 17.1955837,9.01209442 17.7363043,7.68264701 C15.9668297,8.65858589 14.6371723,6.24805423 15.3463733,5.16625598 C14.2618661,5.36130096 12.3920131,4.02838861 12.9373956,2.93569153 L12.9373956,2.93569153 Z" id="path17436" fill="#00FFFF"></path>
            </g>
            <path d="M21.95021,403.69336 C20.2408,402.87003 17.7907,403.95105 12.24532,407.75032 L11.82106,402.23498 C17.54956,399.09718 20.05556,398.29184 24.81394,397.75376" id="path18425" fill="#000000"></path>
            <path d="M12.24532,407.75032 C17.7907,403.95105 20.31579,402.87003 22.0252,403.69336 M24.7609,397.78027 C20.00252,398.31835 17.45582,399.01308 11.72732,402.30998" id="path20365" stroke="#00FF00" stroke-width="0.2099968"></path>
        </g>
    </g>
</svg>